<?xml version="1.0" encoding="iso-8859-1"?>
<!-- Uploaded to: SVG Repo, www.svgrepo.com, Generator: SVG Repo Mixer Tools -->
<svg version="1.1" id="Layer_1" xmlns="http://www.w3.org/2000/svg" xmlns:xlink="http://www.w3.org/1999/xlink" 
	 viewBox="0 0 512 512" xml:space="preserve">
<path d="M358.584,512H153.416c-21.864-0.064-39.568-17.768-39.632-39.632V39.632C113.848,17.768,131.552,0.064,153.416,0h205.168
	c21.864,0.064,39.568,17.768,39.632,39.632v432.736C398.144,494.224,380.44,511.928,358.584,512z"/>
<rect x="132.544" y="40.4" style="fill:#FFFFFF;" width="246.912" height="403.76"/>
<g>
	<path style="fill:#CCCCCC;" d="M293.032,24.424h-50.528c-2.28-0.008-4.12-1.848-4.128-4.128l0,0c0.008-2.28,1.848-4.12,4.128-4.128
		h50.528c2.28,0.008,4.12,1.848,4.128,4.128l0,0C297.152,22.576,295.312,24.416,293.032,24.424z"/>
	<circle style="fill:#CCCCCC;" cx="218.968" cy="20.296" r="4.128"/>
	<path style="fill:#CCCCCC;" d="M256,497.6c-10.784,0-19.52-8.736-19.52-19.52s8.736-19.52,19.52-19.52
		c10.784,0,19.52,8.736,19.52,19.52l0,0C275.504,488.856,266.776,497.584,256,497.6z M256,462.552c-8.568,0-15.52,6.952-15.52,15.52
		s6.952,15.52,15.52,15.52s15.52-6.952,15.52-15.52l0,0c0.008-8.584-6.936-15.544-15.52-15.552l0,0V462.552L256,462.552z"/>
</g>
<path style="fill:#2D2D2D;" d="M296.432,126.016h-10.488v-23.504c-0.016-2.888-2.36-5.216-5.248-5.208h-49.392
	c-2.888-0.008-5.232,2.32-5.248,5.208v23.504h-10.488v-23.504c0.04-8.656,7.08-15.648,15.736-15.624h49.392
	c8.656-0.024,15.696,6.968,15.736,15.624V126.016z"/>
<path style="fill:#E21B1B;" d="M195.648,119.912l-23.576,113.04h167.856l-23.576-113.04L195.648,119.912z"/>
<path style="fill:#FFFFFF;" d="M230.648,159.84c-5.024-0.032-9.08-4.128-9.048-9.16s4.128-9.08,9.16-9.048
	c5.008,0.032,9.048,4.096,9.048,9.104c-0.016,5.04-4.112,9.12-9.152,9.104H230.648z M281.36,159.84
	c-5.024-0.032-9.08-4.128-9.048-9.16c0.032-5.024,4.128-9.08,9.16-9.048c5.008,0.032,9.048,4.096,9.048,9.104
	c-0.016,5.04-4.112,9.12-9.152,9.104C281.36,159.84,281.36,159.84,281.36,159.84L281.36,159.84z"/>
<rect x="202.712" y="290.64" style="fill:#E21B1B;" width="106.576" height="8"/>
<g>
	<rect x="172.072" y="322.4" style="fill:#999999;" width="167.856" height="8"/>
	<rect x="172.072" y="354.08" style="fill:#999999;" width="167.856" height="8"/>
	<rect x="172.072" y="385.84" style="fill:#999999;" width="167.856" height="8"/>
</g>
</svg>