<?xml version="1.0" encoding="iso-8859-1"?>
<!-- Uploaded to: SVG Repo, www.svgrepo.com, Generator: SVG Repo Mixer Tools -->
<svg version="1.1" id="Layer_1" xmlns="http://www.w3.org/2000/svg" xmlns:xlink="http://www.w3.org/1999/xlink" 
	 viewBox="0 0 512 512" xml:space="preserve">
<path d="M414.992,512H97.008c-12.792-0.056-23.144-10.408-23.2-23.2V23.2C73.864,10.408,84.216,0.056,97.008,0h317.984
	c12.792,0.056,23.144,10.408,23.2,23.2v465.6C438.136,501.592,427.784,511.944,414.992,512z"/>
<path style="fill:#C1C1C1;" d="M256,497.416c-8.96,0-16.224-7.264-16.224-16.224s7.264-16.224,16.224-16.224
	s16.224,7.264,16.224,16.224l0,0C272.216,490.152,264.96,497.408,256,497.416z M256,470.76c-5.744,0-10.4,4.656-10.4,10.4
	s4.656,10.4,10.4,10.4s10.4-4.656,10.4-10.4l0,0C266.4,475.416,261.744,470.76,256,470.76z"/>
<rect x="94.104" y="31.936" style="fill:#FFFFFF;" width="323.8" height="419.04"/>
<circle style="fill:#C1C1C1;" cx="256" cy="16" r="4.44"/>
<g>
	<rect x="124.872" y="60.224" style="fill:#999999;" width="262.248" height="32.16"/>
	<rect x="242.936" y="356.8" style="fill:#999999;" width="144.16" height="8"/>
	<rect x="242.936" y="386.96" style="fill:#999999;" width="108.208" height="8"/>
</g>
<polygon points="152.064,361.68 144.672,339.792 125.528,339.792 125.528,333.944 148.872,333.944 157.608,359.8 "/>
<circle cx="194.496" cy="416.48" r="11.264"/>
<circle cx="160.56" cy="416.48" r="11.264"/>
<polygon style="fill:#E21B1B;" points="137.88,356.768 219.08,356.768 203.608,400.192 151.4,400.192 "/>
<g>
	<rect x="242.936" y="248.16" style="fill:#999999;" width="144.16" height="8"/>
	<rect x="242.936" y="278.28" style="fill:#999999;" width="108.208" height="8"/>
</g>
<polygon points="152.064,253 144.672,231.12 125.528,231.12 125.528,225.272 148.872,225.272 157.608,251.128 "/>
<circle cx="194.496" cy="307.816" r="11.264"/>
<circle cx="160.56" cy="307.816" r="11.264"/>
<polygon style="fill:#E21B1B;" points="137.88,248.088 219.08,248.088 203.608,291.52 151.4,291.52 "/>
<g>
	<rect x="242.936" y="139.448" style="fill:#999999;" width="144.16" height="8"/>
	<rect x="242.936" y="169.6" style="fill:#999999;" width="108.208" height="8"/>
</g>
<polygon points="152.064,144.328 144.672,122.44 125.528,122.44 125.528,116.592 148.872,116.592 157.608,142.456 "/>
<circle cx="194.496" cy="199.144" r="11.264"/>
<circle cx="160.56" cy="199.144" r="11.264"/>
<polygon style="fill:#E21B1B;" points="137.88,139.416 219.08,139.416 203.608,182.84 151.4,182.84 "/>
</svg>