<?xml version="1.0" encoding="iso-8859-1"?>
<!-- Uploaded to: SVG Repo, www.svgrepo.com, Generator: SVG Repo Mixer Tools -->
<svg version="1.1" id="Layer_1" xmlns="http://www.w3.org/2000/svg" xmlns:xlink="http://www.w3.org/1999/xlink" 
	 viewBox="0 0 504 504" xml:space="preserve">
<path style="fill:#ACD9EA;" d="M449.2,60.4H56.8c-28,0-50.4,20.8-50.4,48.4v271.6c0,26.4,21.6,48.4,47.6,50.4l404.4-0.4
	c24-3.6,44-24.8,44-49.6V109.2C502,81.2,477.2,60.4,449.2,60.4z"/>
<polygon style="fill:#73BADD;" points="66,112.4 66,376.4 442,376.4 442,356 442,112.4 "/>
<circle style="fill:#996666;" cx="183.2" cy="244.8" r="19.6"/>
<circle style="fill:#AEB1B4;" cx="183.2" cy="244.8" r="47.2"/>
<path style="fill:#33A5D2;" d="M114,300.4c0,4.4-3.6,8-8,8h-8c-4.4,0-8-3.6-8-8v-112c0-4.4,3.6-8,8-8h8c4.4,0,8,3.6,8,8V300.4z"/>
<g>
	<rect x="430" y="132.4" style="fill:#E8E3E3;" width="24" height="32"/>
	<rect x="430" y="324.4" style="fill:#E8E3E3;" width="24" height="32"/>
</g>
<path style="fill:#33A5D2;" d="M66,268.8c-16,0-23.6-10.8-23.6-23.6c0-13.2,7.6-23.6,23.6-23.6V268.8z"/>
<path d="M452.4,434.4H51.6C23.2,434.4,0,411.2,0,382.8V106c0-28.4,23.2-51.6,51.6-51.6h400.8c28.4,0,51.6,23.2,51.6,51.6v276.8
	C504,411.2,480.8,434.4,452.4,434.4z M51.6,62.4C27.6,62.4,8,82,8,106v276.8c0,24,19.6,43.6,43.6,43.6h400.8
	c24,0,43.6-19.6,43.6-43.6h4h-4V106c0-24-19.6-43.6-43.6-43.6L51.6,62.4L51.6,62.4z"/>
<path d="M440,132.4c-2.4,0-4-1.6-4-4v-10h-18c-2.4,0-4-1.6-4-4s1.6-4,4-4h22c2.4,0,4,1.6,4,4v14C444,130.8,442.4,132.4,440,132.4z"
	/>
<path d="M440,378.4H64c-2.4,0-4-1.6-4-4v-260c0-2.4,1.6-4,4-4h322c2.4,0,4,1.6,4,4s-1.6,4-4,4H68v252h368v-14c0-2.4,1.6-4,4-4
	s4,1.6,4,4v18C444,376.8,442.4,378.4,440,378.4z"/>
<path d="M440,324.4c-2.4,0-4-1.6-4-4v-152c0-2.4,1.6-4,4-4s4,1.6,4,4v152C444,322.8,442.4,324.4,440,324.4z"/>
<path d="M184,267.2c-13.2,0-23.6-10.8-23.6-23.6c0-13.2,10.8-23.6,23.6-23.6s23.6,10.8,23.6,23.6C207.6,256.4,197.2,267.2,184,267.2
	z M184,227.6c-8.8,0-15.6,7.2-15.6,15.6s7.2,15.6,15.6,15.6s15.6-7.2,15.6-15.6S192.8,227.6,184,227.6z"/>
<path d="M184,294.8c-28.4,0-51.6-23.2-51.6-51.6s23.2-51.6,51.6-51.6c28.4,0,51.6,23.2,51.6,51.6S212.4,294.8,184,294.8z M184,199.6
	c-24,0-43.6,19.6-43.6,43.6s19.6,43.6,43.6,43.6s43.6-19.6,43.6-43.6S208,199.6,184,199.6z"/>
<path d="M162,250.4h-24c-2.4,0-4-1.6-4-4s1.6-4,4-4h24c2.4,0,4,1.6,4,4S164.4,250.4,162,250.4z"/>
<path d="M230,250.4h-24c-2.4,0-4-1.6-4-4s1.6-4,4-4h24c2.4,0,4,1.6,4,4S232.4,250.4,230,250.4z"/>
<path d="M184,292.4c-2.4,0-4-1.6-4-4v-24c0-2.4,1.6-4,4-4s4,1.6,4,4v24C188,290.8,186.4,292.4,184,292.4z"/>
<path d="M184,224.4c-2.4,0-4-1.6-4-4v-24c0-2.4,1.6-4,4-4s4,1.6,4,4v24C188,222.8,186.4,224.4,184,224.4z"/>
<path d="M150.4,280.8c-1.2,0-2-0.4-2.8-1.2c-1.6-1.6-1.6-4,0-5.6l19.6-19.6c1.6-1.6,4-1.6,5.6,0c1.6,1.6,1.6,4,0,5.6l-19.6,19.6
	C152.4,280.4,151.2,280.8,150.4,280.8z"/>
<path d="M198,233.2c-1.2,0-2-0.4-2.8-1.2c-1.6-1.6-1.6-4,0-5.6l19.6-19.2c1.6-1.6,4-1.6,5.6,0s1.6,4,0,5.6L200.8,232
	C200,232.8,198.8,233.2,198,233.2z"/>
<path d="M217.6,280.8c-1.2,0-2-0.4-2.8-1.2L195.2,260c-1.6-1.6-1.6-4,0-5.6c1.6-1.6,4-1.6,5.6,0l19.6,19.6c1.6,1.6,1.6,4,0,5.6
	C219.6,280.4,218.8,280.8,217.6,280.8z"/>
<path d="M170,233.2c-1.2,0-2-0.4-2.8-1.2l-19.6-19.6c-1.6-1.6-1.6-4,0-5.6s4-1.6,5.6,0l19.6,19.6c1.6,1.6,1.6,4,0,5.6
	C172,232.8,171.2,233.2,170,233.2z"/>
<path d="M104.8,310.8h-7.6c-6.4,0-12-5.2-12-12V188c0-6.4,5.2-12,12-12h7.6c6.4,0,12,5.2,12,12v110.8
	C116.8,305.6,111.2,310.8,104.8,310.8z M96.8,184c-2,0-4,1.6-4,4v110.8c0,2,1.6,4,4,4h7.6c2,0,4-1.6,4-4V188c0-2-1.6-4-4-4H96.8z"/>
<path d="M62.4,271.2H62c-14-1.6-24.8-13.6-24.8-27.6c0-14.4,10.8-26.4,24.8-27.6c2.4-0.4,4,1.2,4.4,3.6c0.4,2-1.2,4-3.6,4.4
	c-10,1.2-17.6,9.6-17.6,19.6s7.6,18.8,17.6,19.6c2,0.4,3.6,2.4,3.6,4.4C66.4,269.6,64.4,271.2,62.4,271.2z"/>
<path d="M452,170.4h-24c-2.4,0-4-1.6-4-4v-32c0-2.4,1.6-4,4-4h24c2.4,0,4,1.6,4,4v32C456,168.8,454.4,170.4,452,170.4z M432,162.4
	h16v-24h-16V162.4z"/>
<path d="M452,358.4h-24c-2.4,0-4-1.6-4-4v-32c0-2.4,1.6-4,4-4h24c2.4,0,4,1.6,4,4v32C456,356.8,454.4,358.4,452,358.4z M432,350.4
	h16v-24h-16V350.4z"/>
<path d="M80.8,449.6H57.2c-2,0-4-0.8-5.6-2.4s-2.4-3.6-2.4-5.6v-6.8c0-4.4,3.6-8,8-8h23.6c2,0,4,0.8,5.6,2.4s2.4,3.6,2.4,5.6v6.8
	C88.8,446,85.2,449.6,80.8,449.6z M80.8,434.8H57.2v6.8h23.6V434.8z"/>
<path d="M454,449.6h-23.6c-4.4,0-8-3.6-8-8v-6.8c0-2,0.8-4,2.4-5.6c1.6-1.6,3.6-2.4,5.6-2.4H454c4.4,0,8,3.6,8,8v6.8l0,0
	c0,2-0.8,4-2.4,5.6C458,448.8,456,449.6,454,449.6z M430,434.8v6.8h23.6v-6.8H430z"/>
</svg>