<?xml version="1.0" encoding="iso-8859-1"?>
<!-- Generator: Adobe Illustrator 19.1.1, SVG Export Plug-In . SVG Version: 6.00 Build 0)  -->
<svg version="1.1"  xmlns="http://www.w3.org/2000/svg" xmlns:xlink="http://www.w3.org/1999/xlink" x="0px" y="0px"
	 viewBox="0 0 48 48" style="enable-background:new 0 0 48 48;" xml:space="preserve">
<g>
	<line style="fill:none;stroke:#263238;stroke-width:2;stroke-miterlimit:10;" x1="30" y1="19" x2="30" y2="8"/>
	<line style="fill:none;stroke:#263238;stroke-width:2;stroke-miterlimit:10;" x1="18" y1="19" x2="18" y2="8"/>
	<path style="fill:none;stroke:#37474F;stroke-width:2;stroke-miterlimit:10;" d="M12,10v26c0,1.65,1.35,3,3,3h0c1.65,0,3-1.35,3-3
		V26"/>
	<path style="fill:none;stroke:#37474F;stroke-width:2;stroke-miterlimit:10;" d="M36,10v26c0,1.65-1.35,3-3,3h0c-1.65,0-3-1.35-3-3
		V26"/>
	<path style="fill:none;stroke:#37474F;stroke-width:2;stroke-miterlimit:10;" d="M22,27v9c0,0-0.063,7-7,7c-7.094,0-7-7-7-7V8"/>
	<path style="fill:none;stroke:#37474F;stroke-width:2;stroke-miterlimit:10;" d="M26,27v9c0,0,0.063,7,7,7c7.094,0,7-7,7-7V8"/>
</g>
<path style="fill:#607D8B;" d="M31.255,16.264c0,0-3.21-1.264-7.255-1.264v0c-0.001,0-0.002,0-0.003,0s-0.002,0-0.003,0v0
	c-4.193,0-7.277,1.327-7.277,1.327L10,23c0,2.505,1.893,3.462,3.416,3.811C14.349,27.026,15.634,27.116,16,28
	c1.469,3.548,7.965,3.003,7.997,3c0.032,0.003,6.528,0.548,7.997-3c0.366-0.884,1.651-0.974,2.584-1.189
	c1.522-0.349,3.416-1.306,3.416-3.811L31.255,16.264z"/>
<path style="fill:#455A64;" d="M38,23c0-0.011-0.003-0.022-0.003-0.033c0.018-0.284,0.058-2.437-2.817-3.594
	C34.476,19.09,33.408,18.639,33,18c-0.191-0.3-0.387-0.547-0.584-0.764c-0.45-0.615-1.125-1.05-1.907-1.185
	C30.198,15.987,29.994,16,29.994,16v0.001C28.34,16.004,27,17.345,27,19c0,0.509,0.14,0.98,0.366,1.397
	C26.897,19.808,25.934,19,24,19c-1.916,0-2.877,0.792-3.351,1.38c0.102-0.196,0.184-0.402,0.242-0.62
	c0.004-0.014,0.009-0.027,0.013-0.042C20.961,19.487,21,19.249,21,19c0-1.657-1.343-3-3-3c0,0-0.167-0.002-0.419,0.042
	c-0.77,0.109-1.44,0.506-1.906,1.084C15.443,17.367,15.214,17.642,15,18c-0.389,0.651-1.482,1.09-2.185,1.373
	C9.733,20.613,10,23,10,23c0,2.505,1.893,3.462,3.416,3.811C14.349,27.026,15.634,27.116,16,28c0.263,0.635,1.079,1.573,1.688,1.813
	c0.749,0.295,1.292,0.312,1.694,0.149C20.856,29.772,22,28.526,22,27c0-0.2-0.022-0.394-0.059-0.583C22.541,26.784,23.243,27,24,27
	s1.459-0.216,2.059-0.583C26.022,26.606,26,26.8,26,27c0,1.523,1.139,2.768,2.61,2.961c0.403,0.164,0.947,0.148,1.697-0.148
	c0.609-0.24,1.425-1.178,1.688-1.813c0.366-0.884,1.651-0.974,2.584-1.189c1.386-0.318,3.064-1.154,3.356-3.19
	C37.976,23.421,38,23.213,38,23z M20.221,21c0.021-0.023,0.039-0.048,0.059-0.072C20.252,20.977,20.23,21.01,20.221,21z M27.779,21
	c-0.011,0.012-0.037-0.032-0.081-0.107C27.726,20.928,27.749,20.967,27.779,21z"/>
<path style="fill:#FF3D00;" d="M22,23c0-1.105,0.895-2,2-2s2,0.895,2,2s-0.895,2-2,2S22,24.105,22,23z M18,20c0.552,0,1-0.448,1-1
	s-0.448-1-1-1s-1,0.448-1,1S17.448,20,18,20z M18,24c0.552,0,1-0.448,1-1s-0.448-1-1-1s-1,0.448-1,1S17.448,24,18,24z M19,28
	c0.552,0,1-0.448,1-1s-0.448-1-1-1s-1,0.448-1,1S18.448,28,19,28z M31,19c0-0.552-0.448-1-1-1s-1,0.448-1,1s0.448,1,1,1
	S31,19.552,31,19z M31,23c0-0.552-0.448-1-1-1s-1,0.448-1,1s0.448,1,1,1S31,23.552,31,23z M30,27c0-0.552-0.448-1-1-1s-1,0.448-1,1
	s0.448,1,1,1S30,27.552,30,27z M13,24c0.552,0,1-0.448,1-1s-0.448-1-1-1s-1,0.448-1,1S12.448,24,13,24z M35,24c0.552,0,1-0.448,1-1
	s-0.448-1-1-1s-1,0.448-1,1S34.448,24,35,24z"/>
<g>
	<polyline style="fill:none;stroke:#546E7A;stroke-width:2;stroke-miterlimit:10;" points="6,4 6,7 8,9 10,7 10,4 	"/>
	<polyline style="fill:none;stroke:#546E7A;stroke-width:2;stroke-miterlimit:10;" points="16,4 16,7 18,9 20,7 20,4 	"/>
	<polyline style="fill:none;stroke:#546E7A;stroke-width:2;stroke-miterlimit:10;" points="38,4 38,7 40,9 42,7 42,4 	"/>
	<polyline style="fill:none;stroke:#546E7A;stroke-width:2;stroke-miterlimit:10;" points="28,4 28,7 30,9 32,7 32,4 	"/>
</g>
</svg>
