<?xml version="1.0" encoding="iso-8859-1"?>
<!-- Uploaded to: SVG Repo, www.svgrepo.com, Generator: SVG Repo Mixer Tools -->
<svg height="800px" width="800px" version="1.1" id="Layer_1" xmlns="http://www.w3.org/2000/svg" xmlns:xlink="http://www.w3.org/1999/xlink" 
	 viewBox="0 0 512 512" xml:space="preserve">
<g transform="translate(1 1)">
	<g>
		<path style="fill:#E2E3E5;" d="M349.316,232.544c0,35.032-27.846,62.877-62.877,62.877s-62.877-27.846-62.877-62.877
			s27.846-62.877,62.877-62.877S349.316,197.512,349.316,232.544"/>
		<path style="fill:#E2E3E5;" d="M511,61.877c0,25.151-19.761,44.912-44.912,44.912c-25.151,0-44.912-19.761-44.912-44.912
			s19.761-44.912,44.912-44.912C491.239,16.965,511,36.726,511,61.877"/>
		<path style="fill:#E2E3E5;" d="M331.351,448.123c0,25.151-19.761,44.912-44.912,44.912s-44.912-19.761-44.912-44.912
			c0-25.151,19.761-44.912,44.912-44.912S331.351,422.972,331.351,448.123"/>
		<path style="fill:#E2E3E5;" d="M124.754,430.158c0,25.151-19.761,44.912-44.912,44.912S34.93,455.309,34.93,430.158
			s19.761-44.912,44.912-44.912S124.754,405.007,124.754,430.158"/>
	</g>
	<path style="fill:#CCCCCC;" d="M322.368,232.544c0,35.032-27.846,62.877-62.877,62.877s-62.877-27.846-62.877-62.877
		s27.846-62.877,62.877-62.877S322.368,197.512,322.368,232.544"/>
	<path style="fill:#E2E3E5;" d="M295.421,232.544c0,35.032-22.456,62.877-49.404,62.877s-49.404-27.846-49.404-62.877
		s22.456-62.877,49.404-62.877S295.421,197.512,295.421,232.544"/>
	<path style="fill:#FFFFFF;" d="M259.491,295.421c2.695,0,5.389,0,7.186-0.898c-24.253-3.593-43.116-29.642-43.116-61.979
		s18.863-58.386,43.116-61.979c-1.796-0.898-4.491-0.898-7.186-0.898c-35.032,0-62.877,27.846-62.877,62.877
		S224.46,295.421,259.491,295.421"/>
	<g>
		<path style="fill:#CCCCCC;" d="M484.053,61.877c0,25.151-19.761,44.912-44.912,44.912s-44.912-19.761-44.912-44.912
			s19.761-44.912,44.912-44.912S484.053,36.726,484.053,61.877"/>
		<path style="fill:#CCCCCC;" d="M304.404,448.123c0,25.151-19.761,44.912-44.912,44.912c-25.151,0-44.912-19.761-44.912-44.912
			c0-25.151,19.761-44.912,44.912-44.912C284.642,403.211,304.404,422.972,304.404,448.123"/>
	</g>
	<g>
		<path style="fill:#E2E3E5;" d="M457.105,61.877c0,25.151-14.372,44.912-31.439,44.912s-31.439-19.761-31.439-44.912
			s14.372-44.912,31.439-44.912S457.105,36.726,457.105,61.877"/>
		<path style="fill:#E2E3E5;" d="M277.456,448.123c0,25.151-14.372,44.912-31.439,44.912s-31.439-19.761-31.439-44.912
			c0-25.151,14.372-44.912,31.439-44.912S277.456,422.972,277.456,448.123"/>
	</g>
	<path style="fill:#CCCCCC;" d="M97.807,430.158c0,25.151-19.761,44.912-44.912,44.912S7.982,455.309,7.982,430.158
		s19.761-44.912,44.912-44.912S97.807,405.007,97.807,430.158"/>
	<g>
		<path style="fill:#E2E3E5;" d="M142.719,88.825c0,15.27-11.677,26.947-26.947,26.947s-26.947-11.677-26.947-26.947
			s11.677-26.947,26.947-26.947S142.719,73.554,142.719,88.825"/>
		<path style="fill:#E2E3E5;" d="M70.86,430.158c0,25.151-14.372,44.912-31.439,44.912S7.982,455.309,7.982,430.158
			s14.372-44.912,31.439-44.912S70.86,405.007,70.86,430.158"/>
	</g>
	<g>
		<path style="fill:#FFFFFF;" d="M52.895,475.07c2.695,0,5.389,0,8.084-0.898c-15.27-3.593-26.049-21.558-26.049-44.014
			s10.779-40.421,26.049-44.014c-2.695-0.898-5.389-0.898-8.084-0.898c-25.151,0-44.912,19.761-44.912,44.912
			S27.744,475.07,52.895,475.07"/>
		<path style="fill:#FFFFFF;" d="M260.389,493.035c2.695,0,5.389,0,8.084-0.898c-14.372-3.593-26.049-22.456-26.049-44.014
			c0-21.558,10.779-40.421,26.049-44.014c-2.695-0.898-5.389-0.898-8.084-0.898c-25.151,0-44.912,19.761-44.912,44.912
			C215.477,473.274,236.137,493.035,260.389,493.035"/>
		<path style="fill:#FFFFFF;" d="M440.039,106.789c2.695,0,5.389,0,8.084-0.898c-14.372-3.593-26.049-22.456-26.049-44.014
			s10.779-40.421,26.049-44.014c-2.695-0.898-5.389-0.898-8.084-0.898c-25.151,0-44.912,19.761-44.912,44.912
			S415.786,106.789,440.039,106.789"/>
	</g>
	<path style="fill:#E2E3E5;" d="M430.158,376.263c0,15.27-11.677,26.947-26.947,26.947c-15.27,0-26.947-11.677-26.947-26.947
		c0-15.27,11.677-26.947,26.947-26.947C418.481,349.316,430.158,360.993,430.158,376.263"/>
	<g>
		<path style="fill:#B6B6B6;" d="M259.491,304.404c-39.523,0-71.86-32.337-71.86-71.86s32.337-71.86,71.86-71.86
			s71.86,32.337,71.86,71.86S299.014,304.404,259.491,304.404z M259.491,178.649c-29.642,0-53.895,24.253-53.895,53.895
			c0,29.642,24.253,53.895,53.895,53.895s53.895-24.253,53.895-53.895C313.386,202.902,289.133,178.649,259.491,178.649z"/>
		<path style="fill:#B6B6B6;" d="M439.14,115.772c-29.642,0-53.895-24.253-53.895-53.895S409.498,7.982,439.14,7.982
			s53.895,24.253,53.895,53.895S468.782,115.772,439.14,115.772z M439.14,25.947c-19.761,0-35.93,16.168-35.93,35.93
			s16.168,35.93,35.93,35.93s35.93-16.168,35.93-35.93S458.902,25.947,439.14,25.947z"/>
		<path style="fill:#B6B6B6;" d="M259.491,502.018c-29.642,0-53.895-24.253-53.895-53.895c0-29.642,24.253-53.895,53.895-53.895
			s53.895,24.253,53.895,53.895C313.386,477.765,289.133,502.018,259.491,502.018z M259.491,412.193
			c-19.761,0-35.93,16.168-35.93,35.93s16.168,35.93,35.93,35.93s35.93-16.168,35.93-35.93S279.253,412.193,259.491,412.193z"/>
		<path style="fill:#B6B6B6;" d="M52.895,484.053C23.253,484.053-1,459.8-1,430.158s24.253-53.895,53.895-53.895
			s53.895,24.253,53.895,53.895S82.537,484.053,52.895,484.053z M52.895,394.228c-19.761,0-35.93,16.168-35.93,35.93
			s16.168,35.93,35.93,35.93s35.93-16.168,35.93-35.93S72.656,394.228,52.895,394.228z"/>
		<path style="fill:#B6B6B6;" d="M115.772,124.754c-19.761,0-35.93-16.168-35.93-35.93s16.168-35.93,35.93-35.93
			s35.93,16.168,35.93,35.93S135.533,124.754,115.772,124.754z M115.772,70.86c-9.881,0-17.965,8.084-17.965,17.965
			s8.084,17.965,17.965,17.965s17.965-8.084,17.965-17.965S125.653,70.86,115.772,70.86z"/>
		<path style="fill:#B6B6B6;" d="M403.211,412.193c-19.761,0-35.93-16.168-35.93-35.93s16.168-35.93,35.93-35.93
			s35.93,16.168,35.93,35.93S422.972,412.193,403.211,412.193z M403.211,358.298c-9.881,0-17.965,8.084-17.965,17.965
			c0,9.881,8.084,17.965,17.965,17.965c9.881,0,17.965-8.084,17.965-17.965C421.175,366.382,413.091,358.298,403.211,358.298z"/>
		<path style="fill:#B6B6B6;" d="M259.491,412.193c-5.389,0-8.982-3.593-8.982-8.982V295.421c0-5.389,3.593-8.982,8.982-8.982
			c5.389,0,8.982,3.593,8.982,8.982v107.789C268.474,408.6,264.881,412.193,259.491,412.193z"/>
		<path style="fill:#B6B6B6;" d="M304.404,196.614c-2.695,0-4.491-0.898-6.288-2.695c-3.593-3.593-3.593-8.982,0-12.575
			l98.807-98.807c3.593-3.593,8.982-3.593,12.575,0c3.593,3.593,3.593,8.982,0,12.575l-98.807,98.807
			C308.895,195.716,307.098,196.614,304.404,196.614z"/>
		<path style="fill:#B6B6B6;" d="M88.825,412.193c-2.695,0-4.491-0.898-6.288-2.695c-3.593-3.593-3.593-8.982,0-12.575
			l125.754-125.754c3.593-3.593,8.982-3.593,12.575,0c3.593,3.593,3.593,8.982,0,12.575L95.112,409.498
			C93.316,411.295,91.519,412.193,88.825,412.193z"/>
		<path style="fill:#B6B6B6;" d="M214.579,196.614c-2.695,0-4.491-0.898-6.288-2.695l-80.842-80.842
			c-3.593-3.593-3.593-8.982,0-12.575s8.982-3.593,12.575,0l80.842,80.842c3.593,3.593,3.593,8.982,0,12.575
			C219.07,195.716,217.274,196.614,214.579,196.614z"/>
		<path style="fill:#B6B6B6;" d="M385.246,367.281c-2.695,0-4.491-0.898-6.288-2.695l-80.842-80.842
			c-3.593-3.593-3.593-8.982,0-12.575c3.593-3.593,8.982-3.593,12.575,0l80.842,80.842c3.593,3.593,3.593,8.982,0,12.575
			C389.737,366.382,387.94,367.281,385.246,367.281z"/>
	</g>
</g>
</svg>