<?xml version="1.0" encoding="utf-8"?><!-- Uploaded to: SVG Repo, www.svgrepo.com, Generator: SVG Repo Mixer Tools -->
<svg fill="#000000" width="800px" height="800px" viewBox="0 0 24 24" id="notification-alert-left-2" data-name="Flat Line" xmlns="http://www.w3.org/2000/svg" class="icon flat-line"><path id="secondary" d="M19.38,14.38,18,13V9A6,6,0,0,0,6,9v4L4.62,14.38A2.12,2.12,0,0,0,6.12,18H17.88a2.12,2.12,0,0,0,1.5-3.62Z" style="fill: rgb(44, 169, 188); stroke-width: 2;"></path><path id="primary" d="M11,3.09A5.47,5.47,0,0,1,12,3a6,6,0,0,1,6,6v4l1.38,1.38A2.12,2.12,0,0,1,17.88,18H6.12A2.12,2.12,0,0,1,4,15.88,2.17,2.17,0,0,1,4.19,15" style="fill: none; stroke: rgb(0, 0, 0); stroke-linecap: round; stroke-linejoin: round; stroke-width: 2;"></path><path id="primary-2" data-name="primary" d="M12,21h0a3,3,0,0,0,3-3H9A3,3,0,0,0,12,21ZM7,6V3" style="fill: none; stroke: rgb(0, 0, 0); stroke-linecap: round; stroke-linejoin: round; stroke-width: 2;"></path><line id="primary-upstroke" x1="7.05" y1="10.5" x2="6.95" y2="10.5" style="fill: none; stroke: rgb(0, 0, 0); stroke-linecap: round; stroke-linejoin: round; stroke-width: 2.5;"></line></svg>