<?xml version="1.0" encoding="utf-8"?><!-- Uploaded to: SVG Repo, www.svgrepo.com, Generator: SVG Repo Mixer Tools -->
<svg fill="#000000" width="800px" height="800px" viewBox="0 0 24 24" id="notification-circle-left" data-name="Flat Line" xmlns="http://www.w3.org/2000/svg" class="icon flat-line"><path id="secondary" d="M6,13V9c0-.06,0-.12,0-.18A3,3,0,0,0,7,9a3,3,0,0,0,3-3A2.94,2.94,0,0,0,9,3.8,5.9,5.9,0,0,1,12,3a6,6,0,0,1,6,6v4l1.38,1.38A2.12,2.12,0,0,1,17.88,18H6.12a2.12,2.12,0,0,1-1.5-3.62Z" style="fill: rgb(44, 169, 188); stroke-width: 2;"></path><path id="primary" d="M9.12,3.73A6,6,0,0,1,12,3a6,6,0,0,1,6,6v4l1.38,1.38A2.12,2.12,0,0,1,17.88,18H6.12a2.12,2.12,0,0,1-1.5-3.62L6,13V9" style="fill: none; stroke: rgb(0, 0, 0); stroke-linecap: round; stroke-linejoin: round; stroke-width: 2;"></path><path id="primary-2" data-name="primary" d="M12,21h0a3,3,0,0,1-3-3h6A3,3,0,0,1,12,21ZM10,6A3,3,0,0,0,7,3H7A3,3,0,0,0,4,6H4A3,3,0,0,0,7,9H7a3,3,0,0,0,3-3Z" style="fill: none; stroke: rgb(0, 0, 0); stroke-linecap: round; stroke-linejoin: round; stroke-width: 2;"></path></svg>