<?xml version="1.0" encoding="iso-8859-1"?>
<!-- Uploaded to: SVG Repo, www.svgrepo.com, Generator: SVG Repo Mixer Tools -->
<svg version="1.1" id="Layer_1" xmlns="http://www.w3.org/2000/svg" xmlns:xlink="http://www.w3.org/1999/xlink" 
	 viewBox="0 0 512 512" xml:space="preserve">
<path d="M358.584,512H153.416c-21.864-0.064-39.568-17.768-39.632-39.632V39.632C113.848,17.768,131.552,0.064,153.416,0h205.168
	c21.864,0.064,39.568,17.768,39.632,39.632v432.736C398.144,494.224,380.44,511.928,358.584,512z"/>
<rect x="132.544" y="40.4" style="fill:#FFFFFF;" width="246.912" height="403.76"/>
<g>
	<path style="fill:#CCCCCC;" d="M293.032,24.424h-50.528c-2.28-0.008-4.12-1.848-4.128-4.128l0,0c0.008-2.28,1.848-4.12,4.128-4.128
		h50.528c2.28,0.008,4.12,1.848,4.128,4.128l0,0C297.152,22.576,295.312,24.416,293.032,24.424z"/>
	<circle style="fill:#CCCCCC;" cx="218.968" cy="20.296" r="4.128"/>
	<path style="fill:#CCCCCC;" d="M256,497.6c-10.784,0-19.52-8.736-19.52-19.52s8.736-19.52,19.52-19.52
		c10.784,0,19.52,8.736,19.52,19.52l0,0C275.504,488.856,266.776,497.584,256,497.6z M256,462.552c-8.568,0-15.52,6.952-15.52,15.52
		s6.952,15.52,15.52,15.52s15.52-6.952,15.52-15.52l0,0c0.008-8.584-6.936-15.544-15.52-15.552l0,0V462.552L256,462.552z"/>
</g>
<path style="fill:#2D2D2D;" d="M296.432,116.76h-10.488V93.256c-0.016-2.888-2.36-5.216-5.248-5.208h-49.392
	c-2.888-0.008-5.232,2.32-5.248,5.208v23.504h-10.488V93.256c0.024-8.672,7.064-15.68,15.736-15.656l0,0h49.392
	c8.656-0.024,15.696,6.968,15.736,15.624V116.76z"/>
<path style="fill:#E21B1B;" d="M195.648,110.656l-23.576,113.04h167.856l-23.576-113.04H195.648z"/>
<path style="fill:#FFFFFF;" d="M230.648,150.584c-5.024-0.032-9.08-4.128-9.048-9.16s4.128-9.08,9.16-9.048
	c5.008,0.032,9.048,4.096,9.048,9.104c-0.016,5.04-4.112,9.12-9.152,9.104H230.648z M281.36,150.584
	c-5.024-0.032-9.08-4.128-9.048-9.16c0.032-5.024,4.128-9.08,9.16-9.048c5.008,0.032,9.048,4.096,9.048,9.104
	c-0.016,5.04-4.112,9.12-9.152,9.104C281.36,150.584,281.36,150.584,281.36,150.584L281.36,150.584z"/>
<path d="M180.072,267.744h151.864c4.416,0,8,3.584,8,8v49c0,4.416-3.584,8-8,8H180.072c-4.416,0-8-3.584-8-8v-49
	C172.072,271.328,175.656,267.744,180.072,267.744z"/>
<g>
	<path style="fill:#FFFFFF;" d="M219.056,278.96c2.904-0.488,5.848-0.72,8.8-0.696c3.312-0.312,6.64,0.432,9.504,2.12
		c2.184,1.288,3.504,3.664,3.44,6.2c-0.08,3.336-2.304,6.248-5.504,7.2v0.104c3.904,0.792,6.704,4.224,6.688,8.208
		c0.048,2.648-1.136,5.168-3.2,6.832c-3.608,2.448-7.96,3.536-12.296,3.072c-2.488,0.008-4.968-0.136-7.432-0.448V278.96z
		 M225.056,292.048h3.104c4.176,0,6.536-1.968,6.536-4.8c0-3.104-2.36-4.528-6.192-4.528c-1.152-0.04-2.312,0.04-3.448,0.248
		V292.048z M225.056,307.296c1.064,0.112,2.128,0.16,3.2,0.144c3.88,0,7.328-1.472,7.328-5.552c0-3.832-3.344-5.416-7.528-5.416h-3
		V307.296z"/>
	<path style="fill:#FFFFFF;" d="M268.576,304.496c0,2.848,0.104,5.208,0.192,7.2h-5.312L263.2,308h-0.096
		c-1.616,2.672-4.552,4.272-7.68,4.176c-4.376,0-8.36-2.6-8.36-10.4v-14.064h6.056v13.04c0,4,1.272,6.544,4.48,6.544
		c2.056-0.048,3.872-1.336,4.616-3.248c0.224-0.592,0.344-1.224,0.352-1.864v-14.472h6.048L268.576,304.496z"/>
	<path style="fill:#FFFFFF;" d="M278.888,287.712l4.336,12.84c0.496,1.48,0.984,3.296,1.328,4.672h0.144
		c0.4-1.376,0.84-3.152,1.28-4.72l3.744-12.8h6.496l-6,16.336c-1.48,5.744-4.352,11.032-8.368,15.4
		c-1.76,1.64-3.968,2.72-6.344,3.104l-1.376-5.12c2.936-0.776,5.408-2.744,6.832-5.424c0.216-0.328,0.352-0.696,0.392-1.088
		c-0.016-0.416-0.136-0.816-0.344-1.176l-8.76-21.992L278.888,287.712z"/>
</g>
<g>
	
		<rect x="287.813" y="365.974" transform="matrix(0.7071 -0.7071 0.7071 0.7071 -186.3304 322.8266)" style="fill:#E21B1B;" width="17.416" height="40.72"/>
	<polygon style="fill:#E21B1B;" points="270.24,398.216 307.792,360.664 262.336,352.76 	"/>
</g>
</svg>