<?xml version="1.0" encoding="iso-8859-1"?>
<!-- Uploaded to: SVG Repo, www.svgrepo.com, Generator: SVG Repo Mixer Tools -->
<svg version="1.1" id="Layer_1" xmlns="http://www.w3.org/2000/svg" xmlns:xlink="http://www.w3.org/1999/xlink" 
	 viewBox="0 0 512 512" xml:space="preserve">
<path style="fill:#6B6B6B;" d="M0,355.2v-324c0.104-5.704,4.696-10.296,10.4-10.4h491.2c5.704,0.104,10.296,4.696,10.4,10.4v324H0z"
	/>
<path d="M512,355.2v41.6c-0.104,5.704-4.696,10.296-10.4,10.4H10.4c-5.704-0.104-10.296-4.696-10.4-10.4v-41.6H512z"/>
<rect x="146.4" y="480.8" style="fill:#333333;" width="219.2" height="10.4"/>
<polygon style="fill:#6B6B6B;" points="328.8,480.8 183.2,480.8 193.6,407.2 318.4,407.2 "/>
<rect x="20.8" y="41.6" width="470.4" height="292.8"/>
<polygon style="fill:#333333;" points="318.4,407.2 193.6,407.2 187.792,448.28 320.272,420.424 "/>
<g>
	
		<rect x="370.909" y="221.193" transform="matrix(0.7071 -0.7071 0.7071 0.7071 -64.0617 343.7275)" style="fill:#FFFFFF;" width="23.952" height="55.999"/>
	<polygon style="fill:#FFFFFF;" points="346.76,265.504 398.408,213.848 335.888,202.976 	"/>
</g>
<polygon style="fill:#666666;" points="387.72,145.616 306.136,145.616 306.136,137.616 384.408,137.616 409.52,112.504 
	491.2,112.504 491.2,120.504 412.832,120.504 "/>
<circle style="fill:#E21B1B;" cx="187.792" cy="185.84" r="108.424"/>
<path style="fill:#666666;" d="M187.792,316.2c-71.976-0.008-130.32-58.352-130.312-130.328S115.832,55.552,187.808,55.56
	c71.968,0.008,130.312,58.352,130.312,130.32C318.04,257.824,259.736,316.128,187.792,316.2z M187.792,63.552
	C120.24,63.56,65.472,118.328,65.48,185.88s54.776,122.32,122.328,122.312s122.304-54.76,122.312-122.312
	C310.04,118.352,255.32,63.632,187.792,63.552L187.792,63.552z"/>
<g>
	<polygon style="fill:#FFFFFF;" points="164.992,169.064 155.192,140.072 129.824,140.072 129.824,132.32 160.752,132.32 
		172.328,166.584 	"/>
	<circle style="fill:#FFFFFF;" cx="221.208" cy="241.68" r="14.92"/>
	<circle style="fill:#FFFFFF;" cx="176.24" cy="241.68" r="14.92"/>
	<polygon style="fill:#FFFFFF;" points="146.2,162.56 253.792,162.56 233.288,220.104 164.112,220.104 	"/>
</g>
</svg>