<?xml version="1.0" encoding="iso-8859-1"?>
<!-- Generator: Adobe Illustrator 19.1.1, SVG Export Plug-In . SVG Version: 6.00 Build 0)  -->
<svg version="1.1"  xmlns="http://www.w3.org/2000/svg" xmlns:xlink="http://www.w3.org/1999/xlink" x="0px" y="0px"
	 viewBox="0 0 48 48" style="enable-background:new 0 0 48 48;" xml:space="preserve">
<rect x="17.063" y="30" style="fill:#C16E14;" width="14" height="15"/>
<polygon style="fill:#4CAF50;" points="17.125,38 19.125,45 11.125,45 "/>
<polygon style="fill:#4CAF50;" points="31,38 29,45 37,45 "/>
<path style="fill:#424242;" d="M47.863,27.451C47.375,25.75,46.438,25.313,46,24s0.5-3.125-0.125-4.25
	c-0.991-1.784-2.026-1.63-2.701-2.815s0.051-2.789-0.424-3.685c-0.583-1.099-2.149-1.331-2.75-2.202
	c-0.666-0.965-0.65-2.392-1.312-3.11C38.006,7.197,36.647,7.172,36,6.654c-3.258-2.611-6-1.591-6-1.591S28.563,3,25,3
	c-0.903,0-2.325-0.031-3.938,0.25C19.782,3.473,19.534,3.922,18,4.522c-0.974,0.381-2.606,0.199-3.625,0.79
	C13.402,5.877,13.042,7.204,12.067,8c-0.728,0.594-2.294,0.57-3.004,1.312C8.415,9.989,8.621,11.418,8,12.231
	c-0.645,0.844-2.25,0.707-2.875,2.519s0.313,2.063-0.563,3.375c-0.639,0.959-2.188,0.75-2.875,2.313c-0.589,1.339,0.375,2.75,0,3.75
	S1.375,24.5,0.324,26.826c-1.022,2.261,0.877,4.924,3.752,7.143c0,0,7.424,4.03,12.049,4.03c0.065,0,0.134,0,0.2,0
	c5.667,0,15.801,0,15.801,0c0.066,0,0.135,0,0.2,0c4.625,0,11.849-4.155,11.849-4.155C47.049,31.625,48.352,29.152,47.863,27.451z"
	/>
<path style="fill:#E5852E;" d="M28,10c0,0-4.066-0.096-7.78,3.163C15.083,17.67,12.125,24.166,12.125,31v1c0,4.5,7.937,9,11,9h2
	c2.937,0,11-4.5,11-9V21.043C35.975,16.925,34.25,10.5,28,10z"/>
<g>
	<polygon style="fill:#E5852E;" points="28.133,11.875 30,5.063 30.117,12.125 	"/>
</g>
<path style="fill:#212121;" d="M20.125,23.5c0,0.828-0.672,1.5-1.5,1.5s-1.5-0.672-1.5-1.5s0.672-1.5,1.5-1.5
	S20.125,22.672,20.125,23.5z M29.625,22c-0.828,0-1.5,0.672-1.5,1.5s0.672,1.5,1.5,1.5s1.5-0.672,1.5-1.5S30.453,22,29.625,22z"/>
<ellipse style="fill:#E5852E;" cx="24.125" cy="39" rx="5" ry="3"/>
<path style="fill:none;stroke:#C16E14;stroke-width:2;stroke-miterlimit:10;" d="M19.125,33c0,0,1.771,1,5,1s5-1,5-1"/>
</svg>
