<?xml version="1.0" encoding="iso-8859-1"?>
<!-- Uploaded to: SVG Repo, www.svgrepo.com, Generator: SVG Repo Mixer Tools -->
<svg height="800px" width="800px" version="1.1" id="Layer_1" xmlns="http://www.w3.org/2000/svg" xmlns:xlink="http://www.w3.org/1999/xlink" 
	 viewBox="0 0 512 512" xml:space="preserve">
<polygon style="fill:#FFEAB5;" points="204.255,62.638 204.255,269.617 149.787,302.298 149.787,29.957 "/>
<polygon style="fill:#FFFFFF;" points="171.574,40.851 171.574,291.404 8.17,269.617 8.17,62.638 "/>
<g>
	<path style="fill:#27467A;" d="M171.574,269.617l-32.681,54.468h32.681c17.974,0,32.681-14.706,32.681-32.681v-21.787H171.574z"/>
	<path style="fill:#27467A;" d="M171.574,8.17h-32.681l32.681,54.468h32.681V40.851C204.255,22.877,189.549,8.17,171.574,8.17z"/>
</g>
<g>
	<path style="fill:#2F5E88;" d="M171.574,269.617v21.787c0,17.974-14.706,32.681-32.681,32.681H40.851
		c-17.974,0-32.681-14.706-32.681-32.681v-21.787H171.574z"/>
	<path style="fill:#2F5E88;" d="M171.574,40.851v21.787H8.17V40.851C8.17,22.877,22.877,8.17,40.851,8.17h98.043
		C156.868,8.17,171.574,22.877,171.574,40.851z"/>
</g>
<polygon style="fill:#FFEAB5;" points="503.83,62.638 503.83,269.617 449.362,302.298 449.362,29.957 "/>
<polygon style="fill:#FFFFFF;" points="471.149,40.851 471.149,291.404 307.745,269.617 307.745,62.638 "/>
<g>
	<path style="fill:#367596;" d="M471.149,269.617l-32.681,54.468h32.681c17.974,0,32.681-14.706,32.681-32.681v-21.787H471.149z"/>
	<path style="fill:#367596;" d="M471.149,8.17h-32.681l32.681,54.468h32.681V40.851C503.83,22.877,489.123,8.17,471.149,8.17z"/>
</g>
<g>
	<path style="fill:#5195AF;" d="M471.149,269.617v21.787c0,17.974-14.706,32.681-32.681,32.681h-98.043
		c-17.974,0-32.681-14.706-32.681-32.681v-21.787H471.149z"/>
	<path style="fill:#5195AF;" d="M471.149,40.851v21.787H307.745V40.851c0-17.974,14.706-32.681,32.681-32.681h98.043
		C456.443,8.17,471.149,22.877,471.149,40.851z"/>
</g>
<polygon style="fill:#FF754F;" points="326.809,384 294.128,384 261.447,449.362 326.809,416.681 "/>
<polygon style="fill:#FF9269;" points="256,384 223.319,449.362 294.128,449.362 294.128,384 "/>
<path style="fill:#FFB082;" d="M294.128,416.681l-21.787,49.021l21.787,38.128h16.34c8.987,0,16.34-7.353,16.34-16.34v-70.809
	H294.128z"/>
<path style="fill:#FFCD9C;" d="M256,416.681V384h-70.809v103.489c0,8.987,7.353,16.34,16.34,16.34h92.596v-87.149H256z"/>
<path d="M212.426,291.404V40.851C212.426,18.325,194.1,0,171.574,0H40.851C18.325,0,0,18.325,0,40.851v250.553
	c0,22.526,18.325,40.851,40.851,40.851h130.723C194.1,332.255,212.426,313.93,212.426,291.404z M40.851,16.34h130.723
	c13.515,0,24.511,10.996,24.511,24.511v13.617H73.532c-4.513,0-8.17,3.657-8.17,8.17s3.657,8.17,8.17,8.17h122.553v190.638H16.34
	V70.809h24.511c4.513,0,8.17-3.657,8.17-8.17s-3.657-8.17-8.17-8.17H16.34V40.851C16.34,27.336,27.336,16.34,40.851,16.34z
	 M16.34,291.404v-13.617h179.745v13.617c0,13.515-10.996,24.511-24.511,24.511H40.851C27.336,315.915,16.34,304.919,16.34,291.404z"
	/>
<path d="M471.149,0H340.426c-22.526,0-40.851,18.325-40.851,40.851v250.553c0,22.526,18.325,40.851,40.851,40.851h130.723
	c22.526,0,40.851-18.325,40.851-40.851V40.851C512,18.325,493.675,0,471.149,0z M340.426,16.34h130.723
	c13.515,0,24.511,10.996,24.511,24.511v13.617H315.915V40.851C315.915,27.336,326.911,16.34,340.426,16.34z M471.149,315.915
	H340.426c-13.515,0-24.511-10.996-24.511-24.511v-13.617h122.553c4.513,0,8.17-3.657,8.17-8.17c0-4.513-3.657-8.17-8.17-8.17
	H315.915V70.809H495.66v190.638h-24.511c-4.513,0-8.17,3.657-8.17,8.17c0,4.513,3.657,8.17,8.17,8.17h24.511v13.617
	C495.66,304.919,484.664,315.915,471.149,315.915z"/>
<path d="M405.787,348.596c-4.513,0-8.17,3.657-8.17,8.17v78.979h-62.638V384c0-4.513-3.657-8.17-8.17-8.17h-38.128
	c-4.513,0-8.17,3.657-8.17,8.17c0,4.513,3.657,8.17,8.17,8.17h29.957v16.34H264.17V384c0-4.513-3.657-8.17-8.17-8.17h-70.809
	c-4.513,0-8.17,3.657-8.17,8.17v51.745h-62.638v-78.979c0-4.513-3.657-8.17-8.17-8.17s-8.17,3.657-8.17,8.17v87.149
	c0,4.513,3.657,8.17,8.17,8.17h70.809v35.404c0,13.515,10.996,24.511,24.511,24.511h108.936c13.515,0,24.511-10.996,24.511-24.511
	v-35.404h70.809c4.513,0,8.17-3.657,8.17-8.17v-87.149C413.957,352.253,410.3,348.596,405.787,348.596z M318.638,487.489
	c0,4.506-3.665,8.17-8.17,8.17H201.532c-4.506,0-8.17-3.665-8.17-8.17V392.17h54.468v24.511c0,4.513,3.657,8.17,8.17,8.17h62.638
	V487.489z"/>
</svg>