<?xml version="1.0" encoding="iso-8859-1"?>
<!-- Generator: Adobe Illustrator 19.1.1, SVG Export Plug-In . SVG Version: 6.00 Build 0)  -->
<svg version="1.1"  xmlns="http://www.w3.org/2000/svg" xmlns:xlink="http://www.w3.org/1999/xlink" x="0px" y="0px"
	 viewBox="0 0 48 48" style="enable-background:new 0 0 48 48;" xml:space="preserve">
<path style="fill:#424242;" d="M27,2c0,0-0.563-1-4-1S8,3.938,8,18l3,20h24l3-20C38,2.125,27,2,27,2z M26,7
	c6.096,0.54,8.094,6.509,8.731,11H11.156C12.731,7.998,26,7,26,7z"/>
<g>
	<path style="fill:#FFA726;" d="M11,23.003c-0.191-0.498-0.463-0.962-0.815-1.355c-0.414-0.463-1.078-0.844-1.611-0.539
		C8.062,21.403,8,22.125,8,22.731c0,1.047,0,2.094,0.009,3.141c0.005,0.574,0.014,1.157,0.179,1.705
		c0.175,0.579,0.515,1.087,0.859,1.579c0.285,0.407,0.576,0.81,0.873,1.209c0.26,0.349,0.635,0.735,1.044,0.612
		c0.013-0.004,0.023-0.013,0.035-0.018L13,23L11,23.003z"/>
	<path style="fill:#FFA726;" d="M37.426,21.11c-0.533-0.305-1.197,0.076-1.611,0.539c-0.352,0.393-0.624,0.857-0.815,1.355L33,23
		l2,7.959c0.012,0.005,0.022,0.014,0.035,0.018c0.409,0.123,0.784-0.262,1.044-0.612c0.297-0.398,0.588-0.801,0.873-1.209
		c0.344-0.491,0.684-1,0.859-1.579c0.165-0.548,0.174-1.131,0.179-1.705C38,24.825,38,23.778,38,22.731
		C38,22.125,37.938,21.403,37.426,21.11z"/>
</g>
<rect x="15.938" y="32" style="fill:#FB8C00;" width="14" height="15"/>
<path style="fill:#FB8C00;" d="M37,25c0,2.083-1,3-1,3v-2c-0.552,0-1-0.448-1-1s0.448-1,1-1S37,24.448,37,25z M9,25c0,2.083,1,3,1,3
	v-2c0.552,0,1-0.448,1-1s-0.448-1-1-1S9,24.448,9,25z"/>
<path style="fill:#424242;" d="M15.063,40c2.986,0,5.637,2.911,6.581,5.743L22.062,47h-0.187H14L15.063,40L15.063,40z M31,40
	c-2.986,0-5.637,2.911-6.581,5.743L24,47h0.188h7.875L31,40L31,40z"/>
<path style="fill:#FFB74D;" d="M26,7c0,0-15,1.125-15,13v3v8c0,4.5,7.938,11,11,11h2c2.938,0,11-6.5,11-11v-9.957
	C34.85,16.925,33.659,7.679,26,7z"/>
<g>
	<path style="fill:#424242;" d="M24,22c0,0-0.038,4,3.667,4S35,22.25,35,21s-2.273-2-4.583-2S24,20.458,24,22z"/>
	<path style="fill:#424242;" d="M22,22c0,0,0.038,4-3.667,4S11,22.25,11,21s2.273-2,4.583-2S22,20.458,22,22z"/>
	<rect x="20" y="21" style="fill:#424242;" width="6" height="1"/>
</g>
<rect x="19" y="33" style="fill:#FB8C00;" width="8" height="2"/>
<g>
	<polygon style="fill:#FFB74D;" points="25.014,7.836 27,2 26.986,8.164 	"/>
</g>
</svg>
