<?xml version="1.0" encoding="iso-8859-1"?>
<!-- Uploaded to: SVG Repo, www.svgrepo.com, Generator: SVG Repo Mixer Tools -->
<svg version="1.1" id="Layer_1" xmlns="http://www.w3.org/2000/svg" xmlns:xlink="http://www.w3.org/1999/xlink" 
	 viewBox="0 0 512 512" xml:space="preserve">
<g>
	<path style="fill:#707487;" d="M432.933,79.067H79.067V34.834c0-14.658,11.882-26.54,26.54-26.54h300.786
		c14.658,0,26.54,11.882,26.54,26.54V79.067z"/>
	<path style="fill:#707487;" d="M79.067,432.933h353.866v44.233c0,14.658-11.882,26.54-26.54,26.54H105.607
		c-14.658,0-26.54-11.882-26.54-26.54V432.933z"/>
</g>
<rect x="79.067" y="79.067" style="fill:#B4E66E;" width="353.866" height="353.866"/>
<circle style="fill:#CEE975;" cx="256" cy="256" r="141.546"/>
<circle style="fill:#FFF082;" cx="256" cy="256" r="115.006"/>
<g>
	<circle style="fill:#FFFFFF;" cx="256" cy="220.613" r="35.387"/>
	<path style="fill:#FFFFFF;" d="M256,282.54c-34.06,0-61.927,27.867-61.927,61.927v8.341c17.887,11.466,39.102,18.199,61.927,18.199
		c22.824,0,44.04-6.732,61.927-18.199v-8.341C317.927,310.407,290.06,282.54,256,282.54z"/>
</g>
<path d="M406.393,0H105.607C86.4,0,70.773,15.627,70.773,34.834v442.333C70.773,496.373,86.4,512,105.607,512h300.786
	c19.207,0,34.834-15.627,34.834-34.834V34.834C441.227,15.627,425.6,0,406.393,0z M406.393,495.413H105.607
	c-10.061,0-18.246-8.185-18.246-18.246v-35.94h27.093c4.58,0,8.294-3.713,8.294-8.294s-3.713-8.294-8.294-8.294H87.361V87.361
	H362.16c4.58,0,8.294-3.713,8.294-8.294s-3.713-8.294-8.294-8.294H87.361v-35.94c0-10.061,8.185-18.246,18.246-18.246h300.786
	c10.061,0,18.246,8.185,18.246,18.246v35.94h-27.093c-4.58,0-8.294,3.713-8.294,8.294s3.713,8.294,8.294,8.294h27.093v337.279
	H149.84c-4.58,0-8.294,3.713-8.294,8.294s3.713,8.294,8.294,8.294h274.799v35.94C424.639,487.227,416.454,495.413,406.393,495.413z"
	/>
<path d="M282.54,35.387h-53.08c-4.58,0-8.294,3.713-8.294,8.294s3.713,8.294,8.294,8.294h53.08c4.58,0,8.294-3.713,8.294-8.294
	S287.12,35.387,282.54,35.387z"/>
<path d="M194.162,35.387h-0.088c-4.58,0-8.25,3.713-8.25,8.294s3.758,8.294,8.338,8.294s8.294-3.713,8.294-8.294
	S198.742,35.387,194.162,35.387z"/>
<path d="M273.693,460.026h-35.387c-4.58,0-8.294,3.713-8.294,8.294s3.713,8.294,8.294,8.294h35.387c4.58,0,8.294-3.713,8.294-8.294
	S278.274,460.026,273.693,460.026z"/>
<path d="M256,379.3c67.988,0,123.3-55.313,123.3-123.3S323.988,132.7,256,132.7S132.7,188.012,132.7,256S188.012,379.3,256,379.3z
	 M202.367,348.224v-3.758c0-29.573,24.06-53.633,53.633-53.633c29.573,0,53.633,24.06,53.633,53.633v3.758
	c-15.768,9.205-34.094,14.489-53.633,14.489S218.135,357.429,202.367,348.224z M256,149.287
	c58.841,0,106.713,47.871,106.713,106.713c0,32.189-14.325,61.094-36.935,80.675c-3.89-35.065-33.692-62.429-69.778-62.429
	s-65.888,27.364-69.778,62.429c-22.61-19.581-36.935-48.486-36.935-80.675C149.287,197.159,197.159,149.287,256,149.287z"/>
<path d="M256,264.294c24.085,0,43.68-19.595,43.68-43.68s-19.595-43.68-43.68-43.68c-24.085,0-43.68,19.595-43.68,43.68
	S231.915,264.294,256,264.294z M256,193.521c14.939,0,27.093,12.154,27.093,27.093c0,14.939-12.154,27.093-27.093,27.093
	c-14.939,0-27.093-12.154-27.093-27.093C228.907,205.675,241.061,193.521,256,193.521z"/>
</svg>