<?xml version="1.0" encoding="iso-8859-1"?>
<!-- Uploaded to: SVG Repo, www.svgrepo.com, Generator: SVG Repo Mixer Tools -->
<svg height="800px" width="800px" version="1.1" id="Layer_1" xmlns="http://www.w3.org/2000/svg" xmlns:xlink="http://www.w3.org/1999/xlink" 
	 viewBox="0 0 508 508" xml:space="preserve">
<path style="fill:#7D8B95;" d="M64,58.6l17.2,38h3.2h20.8L84.8,51.4c-7.2-16-19.2-26.8-42.4-26.8H6v20h35.6
	C56.8,44.6,60,49.8,64,58.6z"/>
<path style="fill:#EFDC81;" d="M196.8,328.6h10.4h21.6h247.6c8.8,0,17.6-8.4,17.6-17.2V116.6H90L174.8,313
	C178,321,188,328.6,196.8,328.6z"/>
<g>
	<path style="fill:#F4EFEF;" d="M388,291.8c5.6,0,10-4.4,10-10V151.4c0-5.6-4.4-10-10-10s-10,4.4-10,10v130.4
		C378,287.4,382.4,291.8,388,291.8z"/>
	<path style="fill:#F4EFEF;" d="M444,295.8c5.6,0,10-4.4,10-9.6V151.8c0-5.6-4.4-10-10-10s-10,4.4-10,10v134.4
		C434,291.4,438.4,295.8,444,295.8z"/>
	<path style="fill:#F4EFEF;" d="M332,295.8c5.6,0,10-4.4,10-9.6V151.8c0-5.6-4.4-10-10-10s-10,4.4-10,10v134.4
		C322,291.4,326.4,295.8,332,295.8z"/>
	<path style="fill:#F4EFEF;" d="M272,295.8c5.6,0,10-4.4,10-9.6V151.8c0-5.6-4.4-10-10-10s-10,4.4-10,10v134.4
		C262,291.4,266.4,295.8,272,295.8z"/>
	<path style="fill:#F4EFEF;" d="M220,271.8c5.6,0,10-4.4,10-9.6V151.4c0-5.6-4.4-10-10-10s-10,4.4-10,10v110.8
		C210,267.4,214.4,271.8,220,271.8z"/>
	<path style="fill:#F4EFEF;" d="M178,151.4c0-5.6-2.4-10-8-10s-8,4.4-8,10V195c0,5.6,2.4,10,8,10s8-4.4,8-10V151.4z"/>
</g>
<g>
	<path style="fill:#7D8B95;" d="M172,394.6c-24,0-43.2,19.2-43.2,43.2S148,481,172,481s43.2-19.2,43.2-43.2
		C215.2,414.2,196,394.6,172,394.6z"/>
	<path style="fill:#7D8B95;" d="M460.8,481.4c24,0,43.2-19.2,43.2-43.2S484.8,395,460.8,395s-43.2,19.2-43.2,43.2
		C417.6,461.8,436.8,481.4,460.8,481.4z"/>
</g>
<path style="fill:#2D414E;" d="M81.2,96.6L81.2,96.6c-4.8,0-7.2,5.2-7.2,9.6v4c0,4.4,2.8,6.8,7.2,6.8H90h402.4c4.4,0,6-2.4,6-6.8v-4
	c0-4.4-1.6-9.6-6-9.6H105.6H84.8C84.4,96.6,81.2,96.6,81.2,96.6z"/>
<path style="fill:#F0B551;" d="M240,355.4c-3.2,20,8.4,28.4,26.4,19.2l31.2-16.4l19.2-10l20.4,10.8l20,10.4l10.4,5.6
	c18,9.2,29.6,0.8,26.4-19.2l-6-33.6l-4-22.4l12.8-12.4l24-23.6l12-23.6c-1.6-5.6-8-9.2-18-10.8l-32-4h-0.4v-1.6l-8-1.2l-16-2.4
	l-7.2-14.4l-14.8-30l-7.6-13.6c-8.8-10.8-20.4-8.4-28,7.2l-16.4,34L276,221l-14,2l-42.4,6.4c-20,2.8-24.4,16.8-10,30.8l27.2,26
	l14,13.6l-2.8,16.4L240,355.4z"/>
<path d="M85.2,100.2c-1.6,0-2.8-0.8-3.6-2.4l-17.2-38c-3.2-6.8-4.4-9.2-18.8-9.2H4c-2.4,0-4-1.6-4-4v-20c0-2.4,1.6-4,4-4h42.4
	c23.6,0,37.6,8.4,46,26.8l20.4,42.8c0.8,2,0,4.4-2,5.2c-2,0.8-4.4,0-5.2-2L85.2,52.2c-7.2-15.6-18.8-22-38.8-22H8v12h37.6
	c16.4,0,20.8,3.6,26,14l17.2,38c0.8,2,0,4.4-2,5.2C86.4,99.8,86,100.2,85.2,100.2z"/>
<path d="M480.4,334.6H390c-2.4,0-4-1.6-4-4s1.6-4,4-4h90.4c4.4,0,7.6-10,7.6-19.2V120.6c0-2.4,1.6-4,4-4s4,1.6,4,4v186.8
	C496,317,492.8,334.6,480.4,334.6z"/>
<path d="M242,334.6h-41.2c-10.8,0-22-9.6-26-18.8L90,120.6c-0.8-2,0-4.4,2-5.2c2-0.8,4.4,0,5.2,2L182,312.6c2.8,6.4,11.6,14,18.8,14
	H242c2.4,0,4,1.6,4,4S244.4,334.6,242,334.6z"/>
<path d="M172,485.4c-26,0-47.2-21.2-47.2-47.2S146,391,172,391s47.2,21.2,47.2,47.2C219.2,464.2,198,485.4,172,485.4z M172,398.6
	c-21.6,0-39.2,17.6-39.2,39.2S150.4,477,172,477s39.2-17.6,39.2-39.2S193.6,398.6,172,398.6z"/>
<path d="M172,465.4c-15.2,0-27.6-12.4-27.6-27.6s12.4-27.6,27.6-27.6c2.4,0,4,1.6,4,4s-1.6,4-4,4c-10.8,0-19.6,8.8-19.6,19.6
	c0,10.8,8.8,19.6,19.6,19.6s19.6-8.8,19.6-19.6c0-2.4,1.6-4,4-4s4,1.6,4,4C199.6,453,187.2,465.4,172,465.4z"/>
<path d="M460.8,485.4c-26,0-47.2-21.2-47.2-47.2s21.2-47.2,47.2-47.2s47.2,21.2,47.2,47.2C508,464.2,486.8,485.4,460.8,485.4z
	 M460.8,398.6c-21.6,0-39.2,17.6-39.2,39.2s17.6,39.2,39.2,39.2s39.2-17.6,39.2-39.2S482.4,398.6,460.8,398.6z"/>
<path d="M460.8,465.4c-15.2,0-27.6-12.4-27.6-27.6s12.4-27.6,27.6-27.6c2.4,0,4,1.6,4,4s-1.6,4-4,4c-10.8,0-19.6,8.8-19.6,19.6
	c0,10.8,8.8,19.6,19.6,19.6c10.8,0,19.6-8.8,19.6-19.6c0-2.4,1.6-4,4-4s4,1.6,4,4C488,453,476,465.4,460.8,465.4z"/>
<path d="M418,454.6H214c-2.4,0-4-1.6-4-4s1.6-4,4-4h204c2.4,0,4,1.6,4,4S420.4,454.6,418,454.6z"/>
<path d="M418,434.6H218c-2.4,0-4-1.6-4-4s1.6-4,4-4h200c2.4,0,4,1.6,4,4S420.4,434.6,418,434.6z"/>
<path d="M180.8,397.8c-0.4,0-1.2,0-1.6-0.4c-2-0.8-2.8-3.2-2-5.2l26.8-62.4c0.8-2,3.2-2.8,5.2-2s2.8,3.2,2,5.2l-26.8,62.4
	C183.6,397,182.4,397.8,180.8,397.8z"/>
<path d="M198.8,406.2c-0.4,0-1.2,0-1.6-0.4c-2-0.8-2.8-3.2-2-5.2l30.8-70.8c0.8-2,3.2-2.8,5.2-2s2.8,3.2,2,5.2l-30.8,70.8
	C201.6,405.4,200.4,406.2,198.8,406.2z"/>
<path d="M492,122.6H80c-6.4,0-12-5.2-12-12v-4c0-6.4,5.2-12,12-12h412c6.4,0,12,5.2,12,12v4C504,117.4,498.8,122.6,492,122.6z
	 M80,102.6c-2,0-4,1.6-4,4v4c0,2,1.6,4,4,4h412c2,0,4-1.6,4-4v-4c0-2-1.6-4-4-4H80z"/>
<path d="M252.8,382.6c-4,0-7.2-1.2-10.4-3.2c-6.4-4.4-8.8-13.2-6.8-24.4l9.2-54.4l-39.6-38l0,0l0,0l0,0l0,0l-1.2-1.2l-0.4-0.4
	c-6.8-7.2-9.2-15.2-7.2-22c2.4-7.2,10-12.4,21.2-14l42.4-6.4l0,0l12-1.6l24.4-49.6c5.2-10.4,12-16,20-16l0,0c7.6,0,14.8,5.6,20,15.6
	l24.4,49.2l54.4,7.6c11.2,1.6,18.8,6.4,21.2,14c2.4,7.2-0.8,16-8.8,24l-39.2,38.4l9.6,54.4c2,11.2-0.4,20-6.8,24.4
	c-6.4,4.4-15.2,4.4-25.2-1.2l-48.8-25.6l-48.8,25.6C262.8,381,257.6,382.6,252.8,382.6z M210.8,256.2l41.6,40.4
	c0.8,0.8,1.2,2.4,1.2,3.6l-9.6,56.4c-1.2,8,0,14,3.6,16.8s10,2,16.8-1.6l50.4-26.8c1.2-0.8,2.4-0.8,3.6,0l50.8,26.4
	c7.2,3.6,13.2,4.4,16.8,1.6s4.8-8.8,3.6-16.8l-10-56.4c-0.4-1.2,0-2.8,1.2-3.6l40.8-40c5.6-5.6,8.4-11.2,6.8-15.6
	c-1.6-4.4-6.8-7.2-14.8-8.4l-56.4-8c-1.2,0-2.4-1.2-3.2-2L328.4,171c-3.6-7.2-8.4-11.2-12.8-11.2l0,0c-4.4,0-9.2,4-12.8,11.6
	l-25.2,51.2c-0.4,1.2-1.6,2-3.2,2L218,233c-8,1.2-13.2,4.4-14.8,8.4C202.8,245,205.2,250.6,210.8,256.2z"/>
<path d="M264,224.6c-2.4,0-4-1.6-4-4V151c0-7.6,6.4-14,14-14s14,6,14,14v49.6c0,2.4-1.6,4-4,4s-4-1.6-4-4V151c0-3.2-2.8-6-6-6
	s-6,2.8-6,6v69.6C268,223,266.4,224.6,264,224.6z"/>
<path d="M212,232.6c-2.4,0-4-1.6-4-4V151c0-7.6,6.4-14,14-14s14,6,14,14v73.6c0,2.4-1.6,4-4,4s-4-1.6-4-4V151c0-3.2-2.8-6-6-6
	s-6,2.8-6,6v77.6C216,231,214.4,232.6,212,232.6z"/>
<path d="M170,211.4c-7.6,0-14-6-14-14V151c0-7.6,6.4-14,14-14s14,6,14,14v46.4C184,205.4,177.6,211.4,170,211.4z M170,145.4
	c-3.2,0-6,2.8-6,6v46.4c0,3.2,2.8,6,6,6s6-2.8,6-6v-46.4C176,147.8,173.2,145.4,170,145.4z"/>
<path d="M344,192.6c-2.4,0-4-1.6-4-4V151c0-3.2-2.8-6-6-6s-6,2.8-6,6v5.6c0,2.4-1.6,4-4,4s-4-1.6-4-4V151c0-7.6,6.4-14,14-14
	s14,6,14,14v37.6C348,191,346.4,192.6,344,192.6z"/>
<path d="M400,228.6c-2.4,0-4-1.6-4-4V151c0-3.2-2.8-6-6-6s-6,2.8-6,6v69.6c0,2.4-1.6,4-4,4s-4-1.6-4-4V151c0-7.6,6.4-14,14-14
	s14,6,14,14v73.6C404,227,402.4,228.6,400,228.6z"/>
<path d="M446,299.4c-7.6,0-14-6-14-14V151c0-7.6,6.4-14,14-14s14,6,14,14v134.4C460,293.4,453.6,299.4,446,299.4z M446,145.4
	c-3.2,0-6,2.8-6,6v134.4c0,3.2,2.8,6,6,6s6-2.8,6-6V151.4C452,147.8,449.2,145.4,446,145.4z"/>
</svg>