<?xml version="1.0" encoding="iso-8859-1"?>
<!-- Uploaded to: SVG Repo, www.svgrepo.com, Generator: SVG Repo Mixer Tools -->
<svg height="800px" width="800px" version="1.1" id="Layer_1" xmlns="http://www.w3.org/2000/svg" xmlns:xlink="http://www.w3.org/1999/xlink" 
	 viewBox="0 0 506 506" xml:space="preserve">
<path style="fill:#7D8B95;" d="M66,58l17.2,38h3.2h20.8L86.8,50.8C79.6,34.8,67.6,24,44.4,24H6v20h37.6C58.8,44,62,49.2,66,58z"/>
<path style="fill:#EFDC81;" d="M198.4,328h10.4H478c8.8,0,15.6-8.4,15.6-17.2V116h-402l84.8,196.4C180,320.4,190,328,198.4,328z"/>
<g>
	<path style="fill:#F4EFEF;" d="M388,294.8c5.6,0,10-4.4,10-9.6V150.8c0-5.6-4.4-10-10-10s-10,4.4-10,10v134.4
		C378,290.4,382.4,294.8,388,294.8z"/>
	<path style="fill:#F4EFEF;" d="M444,294.8c5.6,0,10-4.4,10-9.6V150.8c0-5.6-4.4-10-10-10s-10,4.4-10,10v134.4
		C434,290.4,438.4,294.8,444,294.8z"/>
	<path style="fill:#F4EFEF;" d="M332,294.8c5.6,0,10-4.4,10-9.6V150.8c0-5.6-4.4-10-10-10s-10,4.4-10,10v134.4
		C322,290.4,326.4,294.8,332,294.8z"/>
	<path style="fill:#F4EFEF;" d="M272,294.8c5.6,0,10-4.4,10-9.6V150.8c0-5.6-4.4-10-10-10s-10,4.4-10,10v134.4
		C262,290.4,266.4,294.8,272,294.8z"/>
	<path style="fill:#F4EFEF;" d="M220,294.8c5.6,0,10-4.4,10-9.6V150.8c0-5.6-4.4-10-10-10s-10,4.4-10,10v134.4
		C210,290.4,214.4,294.8,220,294.8z"/>
	<path style="fill:#F4EFEF;" d="M174,150.8c0-5.6-2.4-10-8-10s-8,4.4-8,10v43.6c0,5.6,2.4,10,8,10s8-4.4,8-10V150.8z"/>
</g>
<g>
	<path style="fill:#7D8B95;" d="M170,394c-24,0-43.2,19.2-43.2,43.2s19.2,43.2,43.2,43.2s43.2-19.2,43.2-43.2S194,394,170,394z"/>
	<path style="fill:#7D8B95;" d="M458.8,480.4c24,0,43.2-19.2,43.2-43.2S482.8,394,458.8,394s-43.2,19.2-43.2,43.2
		S434.8,480.4,458.8,480.4z"/>
</g>
<path style="fill:#2D414E;" d="M79.2,100L79.2,100c-4.8,0-9.2,4.8-9.2,9.2v4c0,4.4,4.8,6.8,9.2,6.8H88h402c4.4,0,8-2.4,8-6.8v-4
	c0-4.4-3.6-9.2-8-9.2H103.2H82.4H79.2z"/>
<path style="fill:#AEB1B4;" d="M418,282c0-3.2,2-6.4-0.4-8c-1.6-1.2-3.6-2-5.6-2l-12-0.8c-2.4-13.2-7.6-25.2-14.8-35.6l3.6-4.4
	l4-4.8c3.2-4,3.2-10.4-0.4-14L388,208c-2-2-5.2-3.2-8-2.8c-2,0-4.4,0.8-6,2.4l-9.6,8c-10.4-7.2-22.4-12.4-35.6-14.8l-1.2-13.6
	c-0.4-5.2-5.2-6.8-10.4-6.8h-6c-5.2,0-10,1.6-10.4,6.8l-1.2,12.8c-13.2,2-25.2,7.6-35.6,14.8l-9.6-8c-4-3.2-10.4-3.2-14,0.8L236,212
	c-3.6,3.6-4,10-0.4,14l8,9.2c-7.6,10.4-12.8,22.4-14.8,35.6l-12,0.8c-4.8,0.4-9.2,4.4-9.6,9.6c0,0.4,0,0.4,0,0.8v6
	c0,5.2,4.4,10,9.6,10.4l2.8,0.4l9.2,0.8c2,13.2,7.2,25.6,14.8,36l-7.6,9.2c-3.6,4-3.2,10.4,0.4,14l4.4,4.4c3.6,3.6,10,4,14,0.4
	l8.8-7.6c10.4,7.6,22.8,12.8,36,14.8l0.8,11.6c0.4,5.2,5.2,9.6,10.4,9.6h6c5.2,0,10-4.4,10.4-9.6l0.8-11.6
	c13.2-2.4,25.6-7.6,36-15.2l8.8,7.6c4,3.6,10.4,3.2,14-0.4l4.4-4.4c3.6-3.6,4-10,0.4-14l-7.6-9.2c7.6-10.4,12.4-22.8,14.8-36
	l5.2-0.4l7.2-0.4c5.2-0.4,6-5.2,6-10.4C418,288,418,282,418,282z"/>
<circle style="fill:#E8E3E3;" cx="314.4" cy="285.2" r="53.6"/>
<path d="M83.2,99.2c-1.6,0-2.8-0.8-3.6-2.4l-17.2-38c-3.2-6.8-4.4-9.2-18.8-9.2H4c-2.4,0-4-1.6-4-4v-20c0-2.4,1.6-4,4-4h40.4
	c23.6,0,37.6,8.4,46,26.8l20.4,42.8c0.8,2,0,4.4-2,5.2c-2,0.8-4.4,0-5.2-2L83.2,51.6c-6.8-15.6-18.4-22-38.8-22H8v12h35.6
	c16.4,0,20.8,3.6,26,13.6l17.2,38c0.8,2,0,4.4-2,5.2C84.4,99.2,84,99.2,83.2,99.2z"/>
<path d="M478.4,334H394c-2.4,0-4-1.6-4-4s1.6-4,4-4h84.4c5.2,0,9.6-11.6,9.6-19.2V120c0-2.4,1.6-4,4-4s4,1.6,4,4v186.8
	C496,318,489.6,334,478.4,334z"/>
<path d="M234,334h-35.2c-10.8,0-22.4-10-26.4-18.8L88,120c-0.8-2,0-4.4,2-5.2s4.4,0,5.2,2L179.6,312c3.2,7.2,12.4,14,19.2,14H234
	c2.4,0,4,1.6,4,4S236.4,334,234,334z"/>
<path d="M170,484.4c-26,0-47.2-21.2-47.2-47.2S144,390,170,390s47.2,21.2,47.2,47.2C217.2,463.2,196,484.4,170,484.4z M170,398
	c-21.6,0-39.2,17.6-39.2,39.2s17.6,39.2,39.2,39.2s39.2-17.6,39.2-39.2S191.6,398,170,398z"/>
<path d="M170,464.8c-15.2,0-27.6-12.4-27.6-27.6s12.4-27.6,27.6-27.6c2.4,0,4,1.6,4,4s-1.6,4-4,4c-10.8,0-19.6,8.8-19.6,19.6
	c0,10.8,8.8,19.6,19.6,19.6s19.6-8.8,19.6-19.6c0-2.4,1.6-4,4-4s4,1.6,4,4C197.6,452.4,185.2,464.8,170,464.8z"/>
<path d="M458.8,484.4c-26,0-47.2-21.2-47.2-47.2s21.2-47.2,47.2-47.2s47.2,21.2,47.2,47.2C506,463.2,484.8,484.4,458.8,484.4z
	 M458.8,398c-21.6,0-39.2,17.6-39.2,39.2s17.6,39.2,39.2,39.2s39.2-17.6,39.2-39.2S480.4,398,458.8,398z"/>
<path d="M458.8,464.8c-15.2,0-27.6-12.4-27.6-27.6s12.4-27.6,27.6-27.6c2.4,0,4,1.6,4,4s-1.6,4-4,4c-10.8,0-19.6,8.8-19.6,19.6
	c0,10.8,8.8,19.6,19.6,19.6c10.8,0,19.6-8.8,19.6-19.6c0-2.4,1.6-4,4-4s4,1.6,4,4C486.4,452.4,474,464.8,458.8,464.8z"/>
<path d="M414,454H214c-2.4,0-4-1.6-4-4s1.6-4,4-4h200c2.4,0,4,1.6,4,4S416.4,454,414,454z"/>
<path d="M414,434H214c-2.4,0-4-1.6-4-4s1.6-4,4-4h200c2.4,0,4,1.6,4,4S416.4,434,414,434z"/>
<path d="M178.8,397.2c-0.4,0-1.2,0-1.6-0.4c-2-0.8-2.8-3.2-2-5.2l25.6-59.6c0.8-2,3.2-2.8,5.2-2s2.8,3.2,2,5.2l-25.6,59.6
	C181.6,396.4,180.4,397.2,178.8,397.2z"/>
<path d="M196.8,405.6c-0.4,0-1.2,0-1.6-0.4c-2-0.8-2.8-3.2-2-5.2l29.6-67.6c0.8-2,3.2-2.8,5.2-2s2.8,3.2,2,5.2l-29.6,67.6
	C199.6,404.4,198.4,405.6,196.8,405.6z"/>
<path d="M492,122H80c-6.4,0-12-5.2-12-12v-4c0-6.4,5.2-12,12-12h412c6.4,0,12,5.2,12,12v4C504,116.8,498.8,122,492,122z M80,102
	c-2,0-4,1.6-4,4v4c0,2,1.6,4,4,4h412c2,0,4-1.6,4-4v-4c0-2-1.6-4-4-4H80z"/>
<path d="M314.4,342.8c-19.2,0-37.6-9.6-48.8-26.8c-8.4-12.8-10.8-28.4-7.6-43.6s12.4-28,25.2-36c15.6-10,35.2-11.6,52.4-4.8
	c1.2,0.4,2.4,1.2,3.6,1.6c2,0.8,2.8,3.2,2,5.2s-3.2,2.8-5.2,2c-1.2-0.4-2-0.8-3.2-1.6c-14.8-6-31.6-4.4-45.2,4
	c-11.2,7.2-18.8,18-22,31.2c-2.8,12.8-0.4,26,6.4,37.2c14.8,23.2,45.2,30,68.4,15.2c11.2-7.2,18.8-18,22-31.2
	c2.8-12.8,0.4-26-6.4-37.2c-1.2-2-0.8-4.4,1.2-5.6s4.4-0.8,5.6,1.2c8.4,12.8,10.8,28.4,7.6,43.6s-12.4,28-25.2,36
	C335.6,340,325.2,342.8,314.4,342.8z"/>
<path d="M317.6,398h-6c-7.6,0-13.6-5.2-14.4-12.4l-0.8-11.6c-11.2-2.4-22.4-6.8-32-13.2l-6.8,5.6c-5.6,4.8-14.4,4.4-19.6-0.8
	l-4.4-4.4c-5.2-5.2-5.6-14-0.8-19.6l5.6-6.8c-6.4-9.6-10.8-20.4-13.2-32l-8.8-0.8c-7.2-0.4-13.2-7.2-13.2-14.4v-6
	c0-7.2,6-13.6,13.2-14.4l9.2-0.8c2.4-11.2,6.8-22,13.2-31.6l-6-7.2c-4.8-5.6-4.4-14.4,0.8-19.6l4.4-4.4c5.2-5.2,14-5.6,19.6-0.8
	l7.2,6.4c9.2-6,19.6-10,31.6-12.4l0.8-8.4c0.4-6.8,6-11.2,14.4-11.2h6c8,0,13.6,4.4,14.4,11.2l0.8,7.6c11.2,2.4,22,6.8,31.6,13.2
	l7.2-6c5.6-4.8,14.4-4.4,19.6,0.8l4.4,4.4c5.2,5.2,5.2,14,0.8,19.6l-6.4,7.2c6,9.2,10,19.6,12.4,31.6l7.6,0.8
	c6.8,0.4,10.4,6,10.4,14.4v6c0,8.4-4,13.6-10.8,14.4l-6.4,0.8c-2.4,11.2-6.8,22.4-13.2,32l5.6,6.8c4.8,5.6,4.4,14.4-0.8,19.6
	l-4.4,4.4c-5.2,5.2-14,5.6-19.6,1.2l-6.4-5.2c-10.4,7.2-21.2,12-32,14l-0.8,10C331.2,392.8,325.2,398,317.6,398z M264,351.6
	c0.8,0,1.6,0.4,2.4,0.8c10.4,7.2,22,12,34.4,14.4c2,0.4,3.2,2,3.2,3.6l0.8,14.8c0.4,3.2,3.2,4.8,6.4,4.8h6c2.8,0,6-1.6,6.4-5.2
	l0.8-13.2c0-2,1.6-3.2,3.2-3.6c11.6-2,23.2-6.8,34.4-15.2c1.6-1.2,3.6-0.8,4.8,0l8.8,7.2c2.4,2,6.4,2,8.8-0.4l4.4-4.4
	c2.4-2.4,2.4-6.4,0.4-8.8l-7.6-9.2c-1.2-1.2-1.2-3.6-0.4-4.8c7.2-10,12-22,14-34.4c0.4-1.6,1.6-3.2,3.6-3.2l9.2-0.8
	c0.8,0,3.2-0.4,3.2-6.4v-6c0-6-2.4-6.4-3.2-6.4l0,0l-10.8-0.8c-2,0-3.2-1.6-3.6-3.2c-2.4-13.2-6.8-24.4-13.6-34
	c-1.2-1.6-0.8-3.6,0.4-4.8l8.4-9.2c2-2.4,2-6.4-0.4-8.4l-4.4-4.4c-2.4-2.4-6-2.4-8.4-0.4l-9.2,8c-1.2,1.2-3.6,1.2-4.8,0.4
	c-10-7.2-21.6-12-34-14c-1.6-0.4-3.2-1.6-3.2-3.6l-1.2-10.4c-0.4-3.6-4.4-4-6.4-4h-6c-2,0-6,0.4-6.4,4l-1.2,11.6
	c0,2-1.6,3.2-3.2,3.6c-12.8,2-24,6.8-34,13.6c-1.6,1.2-3.6,0.8-4.8-0.4l-9.6-8.4c-2.4-2-6.4-2-8.4,0.4l-4.4,4.4
	c-2.4,2.4-2.4,6-0.4,8.4l8,9.2c1.2,1.6,1.2,3.6,0,4.8c-7.2,10-12,21.6-14,34c-0.4,1.6-1.6,3.2-3.6,3.2l-12,0.8c-3.2,0.4-6,3.2-6,6.4
	v6c0,3.2,2.8,6,6,6.4l12,0.8c2,0,3.2,1.6,3.6,3.2c2,12.4,6.8,24,14,34.4c1.2,1.6,0.8,3.6-0.4,4.8l-7.6,9.2c-2,2.4-2,6.4,0.4,8.8
	l4.4,4.4c2.4,2.4,6,2.4,8.8,0.4l8.8-7.6C262.4,352,263.2,351.6,264,351.6z"/>
<path d="M260,212c-2.4,0-4-1.6-4-4v-57.2c0-7.6,6.4-13.6,14-13.6s14,6,14,13.6V204c0,2.4-1.6,4-4,4s-4-1.6-4-4v-53.2
	c0-3.2-2.8-5.6-6-5.6s-6,2.8-6,5.6V208C264,210.4,262.4,212,260,212z"/>
<path d="M208,276c-2.4,0-4-1.6-4-4V150.8c0-7.6,6.4-13.6,14-13.6s14,6,14,13.6V264c0,2.4-1.6,4-4,4s-4-1.6-4-4V150.8
	c0-3.2-2.8-5.6-6-5.6s-6,2.8-6,5.6V272C212,274.4,210.4,276,208,276z"/>
<path d="M166,210.8c-7.6,0-14-6-14-14v-46.4c0-7.6,6.4-13.6,14-13.6s14,6,14,13.6v46.4C180,204.8,173.6,210.8,166,210.8z M166,144.8
	c-3.2,0-6,2.8-6,5.6v46.4c0,3.2,2.8,6,6,6s6-2.8,6-6v-46.4C172,147.6,169.2,144.8,166,144.8z"/>
<path d="M340,204c-2.4,0-4-1.6-4-4v-49.2c0-3.2-2.8-5.6-6-5.6s-6,2.8-6,5.6V180c0,2.4-1.6,4-4,4s-4-1.6-4-4v-29.2
	c0-7.6,6.4-13.6,14-13.6s14,6,14,13.6V200C344,202.4,342.4,204,340,204z"/>
<path d="M396,260c-2.4,0-4-1.6-4-4V150.8c0-3.2-2.8-5.6-6-5.6s-6,2.8-6,5.6V204c0,2.4-1.6,4-4,4s-4-1.6-4-4v-53.2
	c0-7.6,6.4-13.6,14-13.6s14,6,14,13.6V256C400,258.4,398.4,260,396,260z"/>
<path d="M442,298.8c-7.6,0-14-6-14-14V150.4c0-7.6,6.4-13.6,14-13.6s14,6,14,13.6v134.4C456,292.8,449.6,298.8,442,298.8z
	 M442,144.8c-3.2,0-6,2.8-6,5.6v134.4c0,3.2,2.8,6,6,6s6-2.8,6-6V150.4C448,147.6,445.2,144.8,442,144.8z"/>
</svg>