<?xml version="1.0" encoding="iso-8859-1"?>
<!-- Uploaded to: SVG Repo, www.svgrepo.com, Generator: SVG Repo Mixer Tools -->
<svg version="1.1" id="Layer_1" xmlns="http://www.w3.org/2000/svg" xmlns:xlink="http://www.w3.org/1999/xlink" 
	 viewBox="0 0 507.2 507.2" xml:space="preserve">
<path style="fill:#CDEEF9;" d="M501.6,83.6c0-17.6-12-30.8-29.6-30.8H35.2C17.6,52.8,1.6,66,1.6,83.6v252.8
	c0,17.6,16,32.4,33.6,32.4H472c17.6,0,29.6-14.8,29.6-32.4L501.6,83.6L501.6,83.6z"/>
<path style="fill:#DF5C4E;" d="M367.2,196.8c5.2,0,10.4-0.8,15.2-2.8l16.4-10.8l0,0c-7.2-7.6-12-18.4-12-30c0-8.8,2.4-16.8,7.2-23.6
	c1.6-2,3.2-4.4,4.8-6c-8-8.4-19.2-13.6-31.6-13.6c-24,0-43.6,19.6-43.6,43.6C324,177.2,343.2,196.8,367.2,196.8z"/>
<path style="fill:#F0C960;" d="M398.8,182.8c8,8.4,19.2,13.6,31.6,13.6c24,0,43.6-19.6,43.6-43.6s-19.6-43.6-43.6-43.6
	c-6,0-12,1.2-17.2,3.6l-14.4,10l0,0c7.2,7.6,12,18.4,12,30C410.8,164.8,406.4,175.2,398.8,182.8z"/>
<path style="fill:#EF934A;" d="M387.2,153.2c0,11.6,4.4,22,12,30c7.2-7.6,12-18.4,12-30s-4.4-22-12-30c-1.6,2-3.2,4-4.8,6
	C389.6,136.4,387.2,144.4,387.2,153.2z"/>
<path style="fill:#AEB1B4;" d="M157.6,139.6c0-13.2-8.8-22.8-21.6-22.8H71.6c-13.2,0-25.6,10-25.6,22.8V172
	c0,13.2,12.8,24.4,25.6,24.4H136c13.2,0,21.6-11.6,21.6-24.4V139.6z"/>
<g>
	<rect x="45.6" y="276.8" style="fill:#F4EFEF;" width="88" height="28"/>
	<rect x="377.6" y="276.8" style="fill:#F4EFEF;" width="88" height="28"/>
</g>
<path style="fill:#F0B551;" d="M260.4,232.4C199.2,232.4,150,282,150,342.8c0,6.8,0.8,11.6,1.6,19.6c9.2,51.2,54.4,90.8,108.8,90.8
	c54.4,0,99.6-39.6,108.8-90.8c1.2-8,1.6-12.8,1.6-19.6C370.8,282,321.6,232.4,260.4,232.4z"/>
<g>
	<path style="fill:#F4EFEF;" d="M287.6,332l-0.8-17.2c0-17.2-15.6-31.2-32.8-31.2s-32.8,14-32.8,31.2V328c0,0-16,1.2-16,11.6v31.2
		v12.8c0,10.4,12.8,21.6,23.2,21.6h56c10.4,0,16.8-11.2,16.8-21.6v-38.8C301.6,334.4,298,332,287.6,332z"/>
	<circle style="fill:#F4EFEF;" cx="255.6" cy="353.6" r="8"/>
</g>
<path d="M367.2,200.4c-26,0-47.6-21.2-47.6-47.6s21.2-47.6,47.6-47.6s47.6,21.2,47.6,47.6c0,12-4.4,23.6-12.8,32.4
	c-1.6,1.6-4,1.6-5.6,0s-1.6-4,0-5.6c6.8-7.2,10.8-16.8,10.8-27.2c0-21.6-17.6-39.6-39.6-39.6c-21.6,0-39.6,17.6-39.6,39.6
	s17.6,39.6,39.6,39.6c4.8,0,9.6-0.8,14-2.4c2-0.8,4.4,0.4,5.2,2.4s-0.4,4.4-2.4,5.2C378.8,199.2,373.2,200.4,367.2,200.4z"/>
<path d="M430.4,200.4c-26,0-47.6-21.2-47.6-47.6c0-9.2,2.8-18,7.6-26c1.6-2.4,3.2-4.8,5.2-6.8c1.6-1.6,4-1.6,5.6,0s1.6,4,0,5.6
	s-3.2,3.6-4.4,5.6c-4,6.4-6.4,14-6.4,21.6c0,21.6,17.6,39.6,39.6,39.6c21.6,0,39.6-17.6,39.6-39.6S452,113.2,430,113.2
	c-5.6,0-10.8,1.2-15.6,3.2c-2,0.8-4.4,0-5.2-2s0-4.4,2-5.2c6-2.4,12.4-4,18.8-4c26,0,47.6,21.2,47.6,47.6S456.8,200.4,430.4,200.4z"
	/>
<path d="M134,202.8H69.6C54,202.8,40,189.2,40,174.4V142c0-14.8,13.6-26.8,29.6-26.8H134c14.8,0,25.6,11.2,25.6,26.8v32.4
	C159.6,190.4,148.4,202.8,134,202.8z M69.2,122.8c-10.4,0-21.6,7.6-21.6,18.8V174c0,10.4,10.4,20.4,21.6,20.4h64.4
	c11.6,0,17.6-10.4,17.6-20.4l0,0v-32.4c0-11.2-7.2-18.8-17.6-18.8H69.2z"/>
<path d="M131.6,310.8h-88c-2.4,0-4-1.6-4-4v-28c0-2.4,1.6-4,4-4h88c2.4,0,4,1.6,4,4v28C135.6,309.2,134,310.8,131.6,310.8z
	 M47.6,302.8h80v-20h-80V302.8z"/>
<path d="M463.6,310.8h-88c-2.4,0-4-1.6-4-4v-28c0-2.4,1.6-4,4-4h88c2.4,0,4,1.6,4,4v28C467.6,309.2,466,310.8,463.6,310.8z
	 M379.6,302.8h80v-20h-80V302.8z"/>
<path d="M133.6,174.8h-84c-2.4,0-4-1.6-4-4s1.6-4,4-4h84c2.4,0,4,1.6,4,4S136,174.8,133.6,174.8z"/>
<path d="M133.6,150.8h-84c-2.4,0-4-1.6-4-4s1.6-4,4-4h84c2.4,0,4,1.6,4,4S136,150.8,133.6,150.8z"/>
<path d="M260.4,457.6c-63.2,0-114.4-51.2-114.4-114.4s51.2-114.4,114.4-114.4S374.8,280,374.8,343.2S323.6,457.6,260.4,457.6z
	 M260.4,236.4C201.6,236.4,154,284,154,342.8s47.6,106.4,106.4,106.4c58.8,0,106.4-47.6,106.4-106.4S319.2,236.4,260.4,236.4z"/>
<path d="M288.8,406.8h-67.6c-11.6,0-17.6-6.8-17.6-20.8v-41.6c0-10.8,2.8-17.6,16.4-17.6h41.6c2.4,0,4,1.6,4,4s-1.6,4-4,4H220
	c-7.6,0-8.4,1.2-8.4,9.6V386c0,10.8,3.6,12.8,9.6,12.8h67.6c9.6,0,10.8-8.8,10.8-14.4v-40c0-9.6,0-9.6-6.8-9.6h-7.2
	c-2.4,0-4-1.6-4-4s1.6-4,4-4h7.2c14,0,14.8,7.2,14.8,17.6v40C307.6,398.4,300.4,406.8,288.8,406.8z"/>
<path d="M287.6,332.8c-2.4,0-4-1.6-4-4v-14c0-14.8-12.8-27.2-28-27.2s-28,12.4-28,27.2v14c0,2.4-1.6,4-4,4s-4-1.6-4-4v-14
	c0-19.2,16.4-35.2,36-35.2s36,16,36,35.2v14C291.6,331.2,290,332.8,287.6,332.8z"/>
<path d="M255.6,368.8c-6.4,0-12-5.2-12-12s5.2-12,12-12s12,5.2,12,12S262,368.8,255.6,368.8z M255.6,353.2c-2,0-4,1.6-4,4s1.6,4,4,4
	c2,0,4-1.6,4-4S257.6,353.2,255.6,353.2z"/>
<path d="M255.6,384.8c-2.4,0-4-1.6-4-4v-16c0-2.4,1.6-4,4-4s4,1.6,4,4v16C259.6,383.2,258,384.8,255.6,384.8z"/>
<path d="M471.6,375.6h-100c-2.4,0-4-1.6-4-4s1.6-4,4-4h100c15.2,0,27.6-12.4,27.6-27.6V85.2c0-15.2-12.4-27.6-27.6-27.6h-436
	C20.4,57.6,8,70,8,85.2V340c0,15.2,12.4,27.6,27.6,27.6h116c2.4,0,4,1.6,4,4s-1.6,4-4,4h-116C16,375.6,0,359.6,0,340V85.2
	c0-19.6,16-35.6,35.6-35.6h436c19.6,0,35.6,16,35.6,35.6V340C507.2,359.2,491.2,375.6,471.6,375.6z"/>
</svg>