<?xml version="1.0" encoding="iso-8859-1"?>
<!-- Uploaded to: SVG Repo, www.svgrepo.com, Generator: SVG Repo Mixer Tools -->
<svg height="800px" width="800px" version="1.1" id="Layer_1" xmlns="http://www.w3.org/2000/svg" xmlns:xlink="http://www.w3.org/1999/xlink" 
	 viewBox="0 0 508 508" xml:space="preserve">
<path style="fill:#7D8B95;" d="M64,59.8l17.2,38h3.2h20.8L84.8,52.6c-7.2-16-19.2-26.8-42.4-26.8H6v20h35.6C56.8,45.8,60,51,64,59.8
	z"/>
<path style="fill:#EFDC81;" d="M200.8,325.8h10.4h21.6h247.6c8.8,0,17.6-6.8,17.6-15.2V113.8H94l84.8,196.4
	C182,318.2,192,325.8,200.8,325.8z"/>
<g>
	<path style="fill:#F4EFEF;" d="M392,298.6c5.6,0,10-4.4,10-10V154.2c0-5.6-4.4-10-10-10s-10,4.4-10,10v134.4
		C382,294.2,386.4,298.6,392,298.6z"/>
	<path style="fill:#F4EFEF;" d="M448,298.6c5.6,0,10-4.4,10-10V154.2c0-5.6-4.4-10-10-10c-5.6,0-10,4.4-10,10v134.4
		C438,294.2,442.4,298.6,448,298.6z"/>
	<path style="fill:#F4EFEF;" d="M332,298.6c5.6,0,10-4.4,10-10V154.2c0-5.6-4.4-10-10-10s-10,4.4-10,10v134.4
		C322,294.2,326.4,298.6,332,298.6z"/>
	<path style="fill:#F4EFEF;" d="M276,298.6c5.6,0,10-4.4,10-10V154.2c0-5.6-4.4-10-10-10s-10,4.4-10,10v134.4
		C266,294.2,270.4,298.6,276,298.6z"/>
	<path style="fill:#F4EFEF;" d="M220,298.6c5.6,0,10-4.4,10-10V154.2c0-5.6-4.4-10-10-10s-10,4.4-10,10v134.4
		C210,294.2,214.4,298.6,220,298.6z"/>
	<path style="fill:#F4EFEF;" d="M178,154.2c0-5.6-2.4-10-8-10s-8,4.4-8,10v43.6c0,5.6,2.4,9.6,8,9.6s8-4.4,8-9.6V154.2z"/>
</g>
<g>
	<path style="fill:#7D8B95;" d="M172,397.8c-24,0-43.2,19.2-43.2,43.2s19.2,43.2,43.2,43.2s43.2-19.2,43.2-43.2S196,397.8,172,397.8
		z"/>
	<path style="fill:#7D8B95;" d="M460.8,484.2c24,0,43.2-19.2,43.2-43.2s-19.2-43.2-43.2-43.2S417.6,417,417.6,441
		C417.6,465,436.8,484.2,460.8,484.2z"/>
</g>
<path style="fill:#2D414E;" d="M81.2,93.8L81.2,93.8c-4.8,0-7.2,6.8-7.2,11.2v4c0,4.4,2.8,4.8,7.2,4.8H90h402.4c4.4,0,6-0.4,6-4.8
	v-4c0-4.4-1.6-11.2-6-11.2H105.6H84.8H81.2z"/>
<path style="fill:#F0B551;" d="M200.4,342.2c-10.8,17.6-2.8,31.6,18,31.6h199.2c20.8,0,28.8-14.4,18-31.6l-100-158l-6-7.6
	c-10.4-7.6-23.2-4.8-31.6,8.8L200.4,342.2z"/>
<path d="M84,98.6c-1.6,0-3.2-0.8-3.6-2.4l-16-36.4c-4-8-6-12-18.8-12H4c-2.4,0-4-1.6-4-4v-20c0-2.4,1.6-4,4-4h42.4
	c22,0,37.2,9.6,46,29.6l19.2,42.8c0.8,2,0,4.4-2,5.2c-2,0.8-4.4,0-5.2-2L85.2,52.6c-7.6-17.2-19.6-24.8-38.8-24.8H8v12h37.6
	c18,0,21.6,8,26,16.8l16,36.4c0.8,2,0,4.4-2,5.2C85.2,98.6,84.4,98.6,84,98.6z"/>
<path d="M480.4,331.8H430c-2.4,0-4-1.6-4-4s1.6-4,4-4h50.4c6.8,0,7.6-9.2,7.6-13.2V117.8c0-2.4,1.6-4,4-4s4,1.6,4,4v192.8
	C496,323.8,490,331.8,480.4,331.8z"/>
<path d="M206,331.8h-5.2c-10.4,0-22-7.6-26.4-17.2L89.2,119.4c-0.8-2,0-4.4,2-5.2c2-0.8,4.4,0,5.2,2l85.2,195.2
	c2.8,6.4,12,12.4,18.8,12.4h5.2c2.4,0,4,1.6,4,4S208.4,331.8,206,331.8z"/>
<path d="M172,488.2c-26,0-47.2-21.2-47.2-47.2s21.2-47.2,47.2-47.2s47.2,21.2,47.2,47.2C219.2,467,198,488.2,172,488.2z M172,401.8
	c-21.6,0-39.2,17.6-39.2,39.2s17.6,39.2,39.2,39.2s39.2-17.6,39.2-39.2S193.6,401.8,172,401.8z"/>
<path d="M172,468.2c-15.2,0-27.6-12.4-27.6-27.6S156.8,413,172,413c2.4,0,4,1.6,4,4s-1.6,4-4,4c-10.8,0-19.6,8.8-19.6,19.6
	c0,10.8,8.8,19.6,19.6,19.6s19.6-8.8,19.6-19.6c0-2.4,1.6-4,4-4s4,1.6,4,4C199.6,456.2,187.2,468.2,172,468.2z"/>
<path d="M460.8,488.2c-26,0-47.2-21.2-47.2-47.2s21.2-47.2,47.2-47.2S508,415,508,441C508,467,486.8,488.2,460.8,488.2z
	 M460.8,401.8c-21.6,0-39.2,17.6-39.2,39.2s17.6,39.2,39.2,39.2S500,462.6,500,441S482.4,401.8,460.8,401.8z"/>
<path d="M460.8,468.2c-15.2,0-27.6-12.4-27.6-27.6s12.4-27.6,27.6-27.6c2.4,0,4,1.6,4,4s-1.6,4-4,4c-10.8,0-19.6,8.8-19.6,19.6
	c0,10.8,8.8,19.6,19.6,19.6c10.8,0,19.6-8.8,19.6-19.6c0-2.4,1.6-4,4-4s4,1.6,4,4C488,456.2,476,468.2,460.8,468.2z"/>
<path d="M418,455.8H214c-2.4,0-4-1.6-4-4s1.6-4,4-4h204c2.4,0,4,1.6,4,4S420.4,455.8,418,455.8z"/>
<path d="M418,435.8H218c-2.4,0-4-1.6-4-4s1.6-4,4-4h200c2.4,0,4,1.6,4,4S420.4,435.8,418,435.8z"/>
<path d="M180.8,401c-0.4,0-1.2,0-1.6-0.4c-2-0.8-2.8-3.2-2-5.2l14.8-34.8c0.8-2,3.2-2.8,5.2-2s2.8,3.2,2,5.2l-14.8,34.8
	C183.6,399.8,182.4,401,180.8,401z"/>
<path d="M198.8,409c-0.4,0-1.2,0-1.6-0.4c-2-0.8-2.8-3.2-2-5.2l11.6-27.2c0.8-2,3.2-2.8,5.2-2s2.8,3.2,2,5.2l-11.6,27.2
	C201.6,408.2,200.4,409,198.8,409z"/>
<path d="M492,119.8H80c-6.4,0-12-5.2-12-12v-4c0-6.4,5.2-12,12-12h412c6.4,0,12,5.2,12,12v4C504,114.6,498.8,119.8,492,119.8z
	 M80,99.8c-2,0-4,1.6-4,4v4c0,2,1.6,4,4,4h412c2,0,4-1.6,4-4v-4c0-2-1.6-4-4-4H80z"/>
<path d="M417.6,379.8H218.4c-10.8,0-19.6-4.4-24-12.4s-3.6-18.8,2.8-28.8l97.2-158c6.4-10,15.2-16,24-16l0,0
	c8.8,0,16.8,5.2,22.4,14.4l24,38.4l74,121.2c6.4,10,7.2,20.4,2.8,28.8C437.2,375.4,428.8,379.8,417.6,379.8z M318.8,173L318.8,173
	c-6.4,0-12.8,4.4-17.2,12l-97.2,158c-4.8,7.6-5.6,15.2-2.4,20.4c2.8,5.2,8.8,8,17.2,8h199.2c8,0,14-2.8,17.2-8
	c3.2-5.6,2-13.2-2.4-20.4l-74-121.2l-24-38.4l0,0C330,177,324.4,173,318.8,173z"/>
<path d="M320,305.8c-2.4,0-4-1.6-4-4v-80c0-2.4,1.6-4,4-4s4,1.6,4,4v80C324,304.2,322.4,305.8,320,305.8z"/>
<path d="M320,335.4c-1.2,0-2-0.4-2.8-1.2c-0.8-0.8-1.2-2-1.2-2.8c0-1.2,0.4-2,1.2-2.8c1.6-1.6,4-1.6,5.6,0c0.8,0.8,1.2,1.6,1.2,2.8
	c0,1.2-0.4,2-1.2,2.8C322,335,321.2,335.4,320,335.4z"/>
<path d="M264,237.8c-2.4,0-4-1.6-4-4v-79.2c0-7.6,6.4-14,14-14s14,6,14,14v47.2c0,2.4-1.6,4-4,4s-4-1.6-4-4v-47.2c0-3.2-2.8-6-6-6
	s-6,2.8-6,6v79.2C268,236.2,266.4,237.8,264,237.8z"/>
<path d="M222,303c-7.6,0-14-6-14-13.6V155c0-7.6,6.4-14,14-14s14,6,14,14v130.8c0,2.4-1.6,4-4,4s-4-1.6-4-4V154.6c0-3.2-2.8-6-6-6
	s-6,2.8-6,6V289c0,3.2,2.8,5.6,6,5.6c2.4,0,4,1.6,4,4S224.4,303,222,303z"/>
<path d="M170,215c-7.6,0-14-6-14-14v-46.4c0-7.6,6.4-14,14-14s14,6,14,14V201C184,208.6,177.6,215,170,215z M170,148.6
	c-3.2,0-6,2.8-6,6V201c0,3.2,2.8,6,6,6s6-2.8,6-5.6V155C176,151.4,173.2,148.6,170,148.6z"/>
<path d="M344,193.8c-2.4,0-4-1.6-4-4v-35.2c0-3.2-2.8-6-6-6s-6,2.8-6,6v11.2c0,2.4-1.6,4-4,4s-4-1.6-4-4v-11.2c0-7.6,6.4-14,14-14
	s14,6,14,14v35.2C348,192.2,346.4,193.8,344,193.8z"/>
<path d="M400,281.8c-2.4,0-4-1.6-4-4V154.6c0-3.2-2.8-6-6-6s-6,2.8-6,6v91.2c0,2.4-1.6,4-4,4s-4-1.6-4-4v-91.2c0-7.6,6.4-14,14-14
	s14,6,14,14v123.2C404,280.2,402.4,281.8,400,281.8z"/>
<path d="M446,303c-7.6,0-14-6-14-14V154.6c0-7.6,6.4-14,14-14s14,6,14,14V289C460,296.6,453.6,303,446,303z M446,148.6
	c-3.2,0-6,2.8-6,6V289c0,3.2,2.8,6,6,6s6-2.8,6-6V154.6C452,151.4,449.2,148.6,446,148.6z"/>
</svg>