<?xml version="1.0" encoding="iso-8859-1"?>
<!-- Uploaded to: SVG Repo, www.svgrepo.com, Generator: SVG Repo Mixer Tools -->
<svg height="800px" width="800px" version="1.1" id="Layer_1" xmlns="http://www.w3.org/2000/svg" xmlns:xlink="http://www.w3.org/1999/xlink" 
	 viewBox="0 0 512 512" xml:space="preserve">
<circle style="fill:#BCB6B8;" cx="256" cy="256" r="256"/>
<circle style="fill:#FD9A0C;" cx="256" cy="256" r="173.315"/>
<path style="fill:#D2CFCE;" d="M333.311,64.074c-1.011,0-2.039-0.183-3.038-0.568c-23.67-9.139-48.659-13.773-74.27-13.773
	s-50.6,4.634-74.27,13.773c-4.347,1.677-9.235-0.484-10.913-4.833c-1.679-4.348,0.485-9.234,4.833-10.913
	c25.618-9.891,52.652-14.907,80.351-14.907c27.7,0,54.733,5.015,80.351,14.907c4.348,1.679,6.512,6.565,4.833,10.913
	C339.893,62.021,336.697,64.074,333.311,64.074z"/>
<g>
	<path style="fill:#FFC066;" d="M256,391.175c-4.661,0-8.44-3.779-8.44-8.44v-261.48c0-4.661,3.779-8.44,8.44-8.44
		c4.661,0,8.44,3.779,8.44,8.44v261.48C264.44,387.397,260.661,391.175,256,391.175z"/>
	<polygon style="fill:#FFC066;" points="352.194,163.253 335.839,163.253 300.862,300.353 317.217,304.525 344.017,199.48 
		370.815,304.525 387.17,300.353 	"/>
	<polygon style="fill:#FFC066;" points="176.161,163.253 159.806,163.253 124.83,300.353 141.185,304.525 167.983,199.48 
		194.783,304.525 211.138,300.353 	"/>
</g>
<path style="fill:#FFAD38;" d="M355.27,173.778h-57.072c-4.661,0-8.44-3.779-8.44-8.44c0-12.586-10.239-22.825-22.825-22.825
	h-21.866c-12.586,0-22.825,10.239-22.825,22.825c0,4.661-3.779,8.44-8.44,8.44h-57.072c-4.661,0-8.44-3.779-8.44-8.44
	s3.779-8.44,8.44-8.44h49.535c3.88-17.851,19.805-31.265,38.802-31.265h21.866c18.997,0,34.922,13.412,38.801,31.265h49.535
	c4.661,0,8.44,3.779,8.44,8.44S359.93,173.778,355.27,173.778z"/>
<path style="fill:#EBEAEA;" d="M486.673,234.472c2.633-3.846,1.65-9.098-2.195-11.732c-3.846-2.633-9.097-1.65-11.732,2.195
	l-4.088,5.971c-1.546-13.097-4.292-26.03-8.189-38.591l8.262-28.072c1.315-4.472-1.242-9.163-5.714-10.479
	c-4.468-1.314-9.162,1.242-10.479,5.714l-2.029,6.895c-1.414-3.071-2.881-6.118-4.441-9.117
	c-4.503-8.651-9.628-16.985-15.283-24.951l-0.819-29.308c-0.131-4.66-4.016-8.345-8.672-8.201c-4.66,0.131-8.33,4.013-8.201,8.673
	l0.204,7.274c-9.53-10.322-20.055-19.732-31.41-27.996c-3.769-2.743-9.048-1.911-11.791,1.857
	c-2.743,3.769-1.911,9.047,1.857,11.791c50.916,37.056,81.313,96.723,81.313,159.607c0,108.774-88.494,197.266-197.266,197.266
	S58.734,364.774,58.734,256c0-62.885,30.397-122.551,81.313-159.607c3.769-2.743,4.6-8.021,1.857-11.791
	c-2.742-3.767-8.02-4.6-11.791-1.857c-11.355,8.264-21.88,17.675-31.41,27.996l0.204-7.274c0.131-4.66-3.541-8.542-8.201-8.672
	c-4.618-0.122-8.541,3.541-8.672,8.201l-0.819,29.308c-5.656,7.966-10.78,16.3-15.283,24.951c-1.561,2.999-3.028,6.046-4.441,9.117
	l-2.029-6.895c-1.315-4.472-6.008-7.031-10.479-5.714c-4.472,1.315-7.03,6.007-5.714,10.479l8.262,28.072
	c-3.897,12.561-6.642,25.494-8.189,38.591l-4.088-5.971c-2.633-3.845-7.885-4.829-11.732-2.195
	c-3.845,2.633-4.829,7.886-2.195,11.732l16.563,24.19c0.164,13.384,1.556,26.475,4.08,39.166l-5.706-4.394
	c-3.693-2.845-8.992-2.156-11.836,1.537c-2.844,3.693-2.156,8.992,1.537,11.836l23.178,17.85
	c4.272,12.585,9.694,24.641,16.123,36.059l-6.875-2.449c-4.387-1.561-9.218,0.728-10.782,5.119
	c-1.564,4.391,0.728,9.218,5.119,10.782l27.725,9.873c7.892,10.546,16.742,20.335,26.402,29.256l-7.386-0.207
	c-4.625-0.118-8.541,3.541-8.673,8.201c-0.131,4.66,3.541,8.542,8.201,8.673l29.412,0.823c10.664,7.562,22.051,14.166,34.028,19.704
	l-6.96,2.048c-4.472,1.315-7.03,6.007-5.714,10.479c1.081,3.676,4.445,6.06,8.092,6.06c0.789,0,1.591-0.111,2.387-0.345l28.06-8.257
	c20.129,6.284,41.525,9.672,63.697,9.672s43.567-3.388,63.697-9.672l28.06,8.257c0.796,0.234,1.597,0.345,2.387,0.345
	c3.647,0,7.01-2.383,8.092-6.06c1.315-4.472-1.242-9.163-5.714-10.479l-6.96-2.048c11.977-5.537,23.364-12.141,34.028-19.704
	L409,429.964c4.66-0.131,8.33-4.013,8.201-8.673c-0.131-4.659-4-8.319-8.673-8.201l-7.386,0.207
	c9.662-8.921,18.511-18.71,26.402-29.256l27.725-9.873c4.391-1.564,6.683-6.39,5.119-10.782c-1.564-4.391-6.39-6.682-10.782-5.119
	l-6.875,2.449c6.429-11.418,11.851-23.474,16.123-36.059l23.178-17.85c3.693-2.844,4.381-8.142,1.537-11.836
	c-2.844-3.692-8.142-4.382-11.836-1.537l-5.706,4.394c2.523-12.692,3.916-25.783,4.08-39.166L486.673,234.472z"/>
<g>
	<path style="fill:#D2CFCE;" d="M256,478.242c-4.661,0-8.44-3.779-8.44-8.44v-16.194c0-4.661,3.779-8.44,8.44-8.44
		c4.661,0,8.44,3.779,8.44,8.44v16.194C264.44,474.463,260.661,478.242,256,478.242z"/>
	<path style="fill:#D2CFCE;" d="M278.505,478.242c-4.661,0-8.44-3.779-8.44-8.44v-16.194c0-4.661,3.779-8.44,8.44-8.44
		c4.661,0,8.44,3.779,8.44,8.44v16.194C286.945,474.463,283.166,478.242,278.505,478.242z"/>
	<path style="fill:#D2CFCE;" d="M233.495,478.242c-4.661,0-8.44-3.779-8.44-8.44v-16.194c0-4.661,3.779-8.44,8.44-8.44
		c4.661,0,8.44,3.779,8.44,8.44v16.194C241.934,474.463,238.155,478.242,233.495,478.242z"/>
</g>
<path style="fill:#FFAD38;" d="M340.445,374.296H171.407c-4.661,0-8.44,3.779-8.44,8.44s3.779,8.44,8.44,8.44h169.038
	c4.661,0,8.44-3.779,8.44-8.44S345.107,374.296,340.445,374.296z"/>
<g>
	<path style="fill:#FFC066;" d="M303.413,302.439c6.302,16.279,22.099,27.829,40.603,27.829c18.504,0,34.301-11.55,40.603-27.829
		H303.413z"/>
	<path style="fill:#FFC066;" d="M167.983,330.268c18.504,0,34.301-11.55,40.603-27.829h-81.205
		C133.683,318.718,149.479,330.268,167.983,330.268z"/>
</g>
<g>
	<path style="fill:#FFAD38;" d="M384.619,310.879h-81.205c-4.661,0-8.44-3.779-8.44-8.44s3.779-8.44,8.44-8.44h81.205
		c4.661,0,8.44,3.779,8.44,8.44S389.28,310.879,384.619,310.879z"/>
	<path style="fill:#FFAD38;" d="M208.587,310.879h-81.205c-4.661,0-8.44-3.779-8.44-8.44s3.779-8.44,8.44-8.44h81.205
		c4.661,0,8.44,3.779,8.44,8.44S213.247,310.879,208.587,310.879z"/>
</g>
</svg>