<?xml version="1.0" encoding="iso-8859-1"?>
<!-- Uploaded to: SVG Repo, www.svgrepo.com, Generator: SVG Repo Mixer Tools -->
<svg version="1.1" id="Layer_1" xmlns="http://www.w3.org/2000/svg" xmlns:xlink="http://www.w3.org/1999/xlink" 
	 viewBox="0 0 512 512" xml:space="preserve">
<path style="fill:#FFFFFF;" d="M42.672,504C23.552,504,8,488.448,8,469.32V42.672C8,23.552,23.552,8,42.672,8h426.656
	C488.44,8,504,23.552,504,42.672v426.656c0,19.12-15.56,34.672-34.672,34.672H42.672z"/>
<path style="fill:#E21B1B;" d="M469.328,16C484.032,16,496,27.968,496,42.672v426.656C496,484.032,484.032,496,469.328,496H42.672
	C27.968,496,16,484.032,16,469.328V42.672C16,27.968,27.968,16,42.672,16H469.328 M469.328,0H42.672C19.2,0,0,19.2,0,42.672v426.656
	C0,492.8,19.2,512,42.672,512h426.656C492.8,512,512,492.8,512,469.328V42.672C512,19.2,492.8,0,469.328,0L469.328,0z"/>
<rect x="89.856" y="175.136" width="16" height="251.928"/>
<rect x="241.76" y="175.136" width="16" height="251.928"/>
<rect x="288.56" y="175.136" width="32" height="251.928"/>
<rect x="351.344" y="175.136" width="16" height="251.928"/>
<rect x="406.144" y="175.136" width="16" height="251.928"/>
<rect x="137.12" y="175.136" width="48" height="251.928"/>
<g>
	<path style="fill:#E21B1B;" d="M118.584,93.632c0,14.096-5.688,23.76-17.32,23.76c-11.776,0-16.96-10.584-17.032-23.488
		c0-13.176,5.608-23.624,17.392-23.624C113.808,70.28,118.584,81.152,118.584,93.632z M94.952,93.904
		c-0.064,10.448,2.456,15.424,6.592,15.424s6.384-5.192,6.384-15.568c0-10.096-2.176-15.424-6.456-15.424
		C97.544,78.344,94.88,83.32,94.952,93.904z"/>
	<path style="fill:#E21B1B;" d="M157.48,93.632c0,14.096-5.688,23.76-17.32,23.76c-11.776,0-16.96-10.584-17.032-23.488
		c0-13.176,5.608-23.624,17.392-23.624C152.712,70.28,157.48,81.152,157.48,93.632z M133.848,93.904
		c-0.064,10.448,2.456,15.424,6.592,15.424s6.384-5.192,6.384-15.568c0-10.096-2.176-15.424-6.456-15.424
		C136.448,78.344,133.784,83.32,133.848,93.904z"/>
	<path style="fill:#E21B1B;" d="M193.16,79.816h-17.664l-0.984,7.016c0.984-0.136,1.824-0.136,2.944-0.136
		c4.352,0,8.76,0.984,11.992,3.296c3.432,2.312,5.536,6.096,5.536,11.424c0,8.48-7.288,15.984-19.56,15.984
		c-5.536,0-10.168-1.264-12.688-2.592l1.888-7.992c2.032,0.984,6.168,2.24,10.312,2.24c4.416,0,9.112-2.104,9.112-6.944
		c0-4.696-3.72-7.576-12.832-7.576c-2.528,0-4.28,0.144-6.168,0.424l3.016-23.904h25.096V79.816z"/>
	<path style="fill:#E21B1B;" d="M220.496,116.624v-10.872h-20.192v-6.944l17.248-27.76h13.04V97.76h5.464v7.992h-5.464v10.872
		C230.592,116.624,220.496,116.624,220.496,116.624z M220.496,97.76V87.664c0-2.736,0.136-5.536,0.352-8.48h-0.28
		c-1.472,2.944-2.664,5.608-4.208,8.48l-6.096,9.952v0.136h10.232V97.76z"/>
	<path style="fill:#E21B1B;" d="M270.968,79.816h-17.672l-0.984,7.016c0.984-0.136,1.824-0.136,2.944-0.136
		c4.352,0,8.76,0.984,11.984,3.296c3.432,2.312,5.536,6.096,5.536,11.424c0,8.48-7.288,15.984-19.56,15.984
		c-5.536,0-10.168-1.264-12.688-2.592l1.888-7.992c2.032,0.984,6.168,2.24,10.312,2.24c4.416,0,9.112-2.104,9.112-6.944
		c0-4.696-3.712-7.576-12.832-7.576c-2.528,0-4.28,0.144-6.168,0.424l3.016-23.904h25.104v8.76H270.968z"/>
	<path style="fill:#E21B1B;" d="M298.296,116.624v-10.872h-20.184v-6.944l17.24-27.76h13.04V97.76h5.472v7.992h-5.472v10.872
		C308.392,116.624,298.296,116.624,298.296,116.624z M298.296,97.76V87.664c0-2.736,0.144-5.536,0.352-8.48h-0.288
		c-1.472,2.944-2.656,5.608-4.2,8.48l-6.104,9.952v0.136h10.24V97.76z"/>
	<path style="fill:#E21B1B;" d="M331.944,80.52h-0.128l-8.696,4.136l-1.76-7.992l12.056-5.608h8.84v45.576h-10.312L331.944,80.52
		L331.944,80.52z"/>
	<path style="fill:#E21B1B;" d="M357.256,116.624v-6.448l5.88-5.328c9.96-8.904,14.8-14.024,14.936-19.352
		c0-3.72-2.24-6.664-7.504-6.664c-3.92,0-7.352,1.968-9.736,3.792l-3.024-7.648c3.432-2.592,8.76-4.696,14.936-4.696
		c10.312,0,15.984,6.032,15.984,14.304c0,7.648-5.536,13.744-12.128,19.632l-4.2,3.504v0.136h17.168v8.76h-32.312V116.624z"/>
	<path style="fill:#E21B1B;" d="M426.576,79.816H408.92l-0.984,7.016c0.984-0.136,1.816-0.136,2.944-0.136
		c4.344,0,8.76,0.984,11.984,3.296c3.432,2.312,5.536,6.096,5.536,11.424c0,8.48-7.288,15.984-19.568,15.984
		c-5.536,0-10.16-1.264-12.688-2.592l1.896-7.992c2.024,0.984,6.168,2.24,10.304,2.24c4.424,0,9.12-2.104,9.12-6.944
		c0-4.696-3.72-7.576-12.84-7.576c-2.512,0-4.28,0.144-6.16,0.424l3.016-23.904h25.096V79.816z"/>
</g>
</svg>