<?xml version="1.0" encoding="iso-8859-1"?>
<!-- Uploaded to: SVG Repo, www.svgrepo.com, Generator: SVG Repo Mixer Tools -->
<svg height="800px" width="800px" version="1.1" id="Layer_1" xmlns="http://www.w3.org/2000/svg" xmlns:xlink="http://www.w3.org/1999/xlink" 
	 viewBox="0 0 512 512" xml:space="preserve">
<path style="fill:#FFC850;" d="M475.919,81.897H265.814c-12.151,0-23.805-4.827-32.397-13.42l-28.141-28.141
	c-8.593-8.593-20.246-13.42-32.397-13.42H36.081c-15.182,0-27.49,12.307-27.49,27.49v109.96h494.819v-54.98
	C503.409,94.205,491.102,81.897,475.919,81.897z"/>
<path style="fill:#E1A546;" d="M503.409,118.784c-7.681-5.814-17.135-9.397-27.49-9.397H36.081c-10.355,0-19.809,3.583-27.49,9.397
	v45.583h494.819V118.784z"/>
<path style="fill:#FFDC64;" d="M475.919,485.083H36.081c-15.182,0-27.49-12.307-27.49-27.49V164.367
	c0-15.182,12.307-27.49,27.49-27.49h439.839c15.182,0,27.49,12.307,27.49,27.49v293.226
	C503.409,472.775,491.102,485.083,475.919,485.083z"/>
<circle style="fill:#FFF082;" cx="256" cy="310.98" r="119.123"/>
<g>
	<circle style="fill:#FFC850;" cx="256" cy="265.163" r="27.49"/>
	<path style="fill:#FFC850;" d="M285.757,322.086c-3.475-2.965-8.517-2.354-12.002,0.6c-4.789,4.061-10.984,6.511-17.755,6.511
		c-6.771,0-12.967-2.45-17.755-6.511c-3.484-2.954-8.526-3.565-12.002-0.6c-9.799,8.362-16.06,20.701-16.06,34.601v18.437h91.633
		v-18.437C301.817,342.787,295.556,330.447,285.757,322.086z"/>
</g>
<g>
	<path style="fill:#E1A546;" d="M248.063,327.929c-3.628-1.098-6.977-2.837-9.8-5.227c-3.48-2.945-8.486-3.623-11.959-0.669
		c-9.835,8.362-16.121,20.724-16.121,34.652v18.438h27.49v-18.437C237.673,345.723,241.609,335.764,248.063,327.929z"/>
	<path style="fill:#E1A546;" d="M274.327,283.49c-15.182,0-27.49-12.307-27.49-27.49c0-6.969,2.677-13.258,6.95-18.103
		c-14.129,1.145-25.277,12.842-25.277,27.267c0,15.182,12.307,27.49,27.49,27.49c8.214,0,15.502-3.674,20.54-9.387
		C275.797,283.327,275.085,283.49,274.327,283.49z"/>
</g>
<path style="fill:#FFDC64;" d="M46.928,136.877h-0.226C46.775,137.045,46.85,137.095,46.928,136.877z"/>
<path style="fill:#FFC850;" d="M191.857,457.593c-70.851,0-128.286-57.436-128.286-128.286v-192.43h-27.49
	c-15.182,0-27.49,12.307-27.49,27.49v293.226c0,15.182,12.307,27.49,27.49,27.49h439.839c11.952,0,22.019-7.674,25.806-18.327
	l1.684-9.163H191.857z"/>
<path d="M475.919,73.306H265.814c-9.943,0-19.291-3.873-26.323-10.903l-28.141-28.141c-10.277-10.277-23.939-15.936-38.471-15.936
	H36.081C16.186,18.327,0,34.512,0,54.407v403.186c0,19.895,16.186,36.081,36.081,36.081h439.839
	c19.895,0,36.081-16.186,36.081-36.081V109.387C512,89.492,495.814,73.306,475.919,73.306z M494.819,457.593
	c0,10.421-8.478,18.899-18.899,18.899H36.081c-10.421,0-18.899-8.478-18.899-18.899V164.367c0-10.421,8.478-18.899,18.899-18.899
	H420.94c4.744,0,8.591-3.846,8.591-8.591c0-4.744-3.846-8.591-8.591-8.591H36.081c-6.925,0-13.399,1.966-18.899,5.362V54.407
	c0-10.421,8.478-18.899,18.899-18.899H172.88c9.943,0,19.291,3.873,26.323,10.903l28.141,28.141
	c10.277,10.277,23.939,15.936,38.471,15.936h210.106c10.421,0,18.899,8.478,18.899,18.899v24.261
	c-5.5-3.396-11.974-5.362-18.899-5.362h-18.327c-4.744,0-8.591,3.846-8.591,8.591c0,4.744,3.846,8.591,8.591,8.591h18.327
	c10.421,0,18.899,8.478,18.899,18.899V457.593z"/>
<path d="M256,301.244c19.895,0,36.081-16.186,36.081-36.081c0-19.895-16.186-36.081-36.081-36.081s-36.081,16.186-36.081,36.081
	C219.919,285.058,236.105,301.244,256,301.244z M256,246.264c10.421,0,18.899,8.478,18.899,18.899
	c0,10.421-8.478,18.899-18.899,18.899s-18.899-8.478-18.899-18.899C237.101,254.742,245.579,246.264,256,246.264z"/>
<path d="M201.593,356.796v18.327c0,4.744,3.846,8.591,8.591,8.591h91.633c4.744,0,8.591-3.846,8.591-8.591v-18.327
	c0-19.251-10.487-37.257-27.371-46.992c-3.896-2.248-8.867-1.108-11.396,2.613c-3.532,5.197-9.379,8.299-15.641,8.299
	c-6.262,0-12.108-3.102-15.641-8.299c-2.529-3.72-7.5-4.859-11.396-2.613C212.08,319.54,201.593,337.545,201.593,356.796z
	 M218.774,356.796c0-11.025,4.8-21.142,13.114-28.146c6.552,5.891,15.106,9.247,24.112,9.247s17.561-3.356,24.112-9.247
	c8.313,7.004,13.114,17.122,13.114,28.146v9.736h-74.452V356.796z"/>
<path d="M145.758,302.943c1.915-26.444,13.31-51.348,32.083-70.121c18.774-18.773,43.676-30.168,70.12-32.083
	c26.178-1.897,52.192,5.551,73.243,20.97c3.828,2.804,9.203,1.974,12.006-1.854c2.803-3.827,1.974-9.203-1.854-12.006
	c-24.337-17.825-54.39-26.436-84.637-24.245c-30.56,2.214-59.336,15.379-81.028,37.071s-34.857,50.469-37.071,81.029
	c-2.19,30.242,6.421,60.301,24.247,84.638c1.683,2.298,4.292,3.514,6.937,3.514c1.762,0,3.539-0.541,5.07-1.661
	c3.827-2.804,4.657-8.179,1.853-12.006C151.31,355.136,143.863,329.124,145.758,302.943z"/>
<path d="M347.127,233.768c-3.828,2.804-4.657,8.179-1.854,12.006c15.42,21.052,22.866,47.063,20.97,73.243
	c-1.915,26.444-13.31,51.347-32.083,70.12c-18.774,18.774-43.677,30.168-70.121,32.084c-26.184,1.889-52.193-5.552-73.243-20.971
	c-3.827-2.802-9.203-1.974-12.006,1.853c-2.804,3.828-1.974,9.203,1.854,12.006c21.849,16.007,48.309,24.584,75.377,24.584
	c3.079,0,6.169-0.111,9.257-0.334c30.561-2.213,59.337-15.378,81.029-37.071c21.692-21.692,34.857-50.468,37.071-81.028
	c2.191-30.242-6.419-60.3-24.245-84.637C356.329,231.795,350.953,230.967,347.127,233.768z"/>
</svg>