<?xml version="1.0" encoding="iso-8859-1"?>
<!-- Uploaded to: SVG Repo, www.svgrepo.com, Generator: SVG Repo Mixer Tools -->
<svg version="1.1" id="Layer_1" xmlns="http://www.w3.org/2000/svg" xmlns:xlink="http://www.w3.org/1999/xlink" 
	 viewBox="0 0 511.992 511.992" xml:space="preserve">
<path style="fill:#E2E2E2;" d="M36.328,314.4V103.776h308.056V314.4H36.328z"/>
<path style="fill:#F91E1E;" d="M0.928,60.488v57.6c0.344,26.312,21.944,47.36,48.256,47.016
	c25.824-0.336,46.688-21.192,47.016-47.016c0.344,26.312,21.944,47.36,48.256,47.016c25.832-0.336,46.688-21.192,47.016-47.016
	c0.344,26.312,21.944,47.36,48.256,47.016c25.824-0.336,46.688-21.192,47.016-47.016c0.344,26.312,21.944,47.36,48.256,47.016
	c25.824-0.336,46.688-21.192,47.016-47.016v-57.6C382.016,60.488,0.928,60.488,0.928,60.488z"/>
<rect y="314.4" width="380.84" height="23.816"/>
<rect x="142.352" y="204.264" width="96" height="110.16"/>
<g>
	<polygon style="fill:#E21B1B;" points="321.128,0 382.016,60.488 0.928,60.488 61.816,0 	"/>
	<circle style="fill:#E21B1B;" cx="393.28" cy="393.28" r="118.712"/>
</g>
<path style="fill:#FFFFFF;" d="M387.56,458.4v-15.936c-9.344-0.096-18.512-2.568-26.632-7.2l4.44-15.456
	c7.776,4.592,16.616,7.072,25.648,7.2c10.36,0,17.432-5.096,17.432-12.992c0-7.4-5.752-12.168-17.92-16.6
	C373.256,391.2,362.08,383.272,362.08,368c0-14.144,9.864-24.992,26.48-27.952v-16.136h13.488V339.2
	c7.872,0.088,15.624,1.944,22.688,5.432l-4.44,15.128c-6.912-3.632-14.592-5.552-22.4-5.6c-11.504,0-15.616,5.92-15.616,11.512
	c0,6.744,5.92,10.52,19.896,16.112c18.4,6.904,26.632,15.792,26.632,30.4c-0.328,15.464-12.368,28.144-27.792,29.264V458.4H387.56z"
	/>
</svg>