<?xml version="1.0" encoding="iso-8859-1"?>
<!-- Uploaded to: SVG Repo, www.svgrepo.com, Generator: SVG Repo Mixer Tools -->
<svg height="800px" width="800px" version="1.1" id="Layer_1" xmlns="http://www.w3.org/2000/svg" xmlns:xlink="http://www.w3.org/1999/xlink" 
	 viewBox="0 0 498.4 498.4" xml:space="preserve">
<path style="fill:#CCCCCC;" d="M369.4,382.4L369.4,382.4C369.4,382,369.4,382,369.4,382.4L369.4,382.4L369.4,382.4z"/>
<path style="fill:#EF934A;" d="M415.4,32.4c0-15.2-9.6-26.4-24.8-26.4H63.8C48.6,6,35.4,17.2,35.4,32.4V36v41.2v13.6V304v17.2v41.2
	c0,15.2,13.2,27.6,28.4,27.6H425c15.2,0,26.4-12.4,26.4-27.6V266h4.8c7.6,0,11.2-6,11.2-13.6v-55.2c0-7.6-3.6-11.2-11.2-11.2h-4.8
	v-19.6V90.8V73.6c0-15.2-11.2-27.6-26.4-27.6h-9.6L415.4,32.4L415.4,32.4z"/>
<path style="fill:#E8BB85;" d="M407.4,338c0,3.6,0.8,8-2.8,8H45.8l-10.4-19.2V102h369.2c3.6,0,2.8,1.6,2.8,5.2V338z"/>
<path style="fill:#E07D46;" d="M463.4,252.4c0,7.6-6,13.6-13.6,13.6H321.4c-7.6,0-13.6-6-13.6-13.6V196c0-7.6,6-13.6,13.6-13.6
	h128.4c7.6,0,13.6,6,13.6,13.6V252.4L463.4,252.4z"/>
<circle style="fill:#B44F2B;" cx="357" cy="216.8" r="24"/>
<path style="fill:#E07D46;" d="M425.8,42c-1.6-13.6-13.2-24-27.2-24H73.4c-6.8,0-12,5.2-12,12s5.2,12,12,12H425.8z"/>
<path style="fill:#DF5C4E;" d="M361.8,344c-16.4-42-56.8-72.8-104.8-72.8c-62,0-112.4,49.6-112.4,111.6s50.4,114,112.4,114
	S369.4,450,369.4,386H369h0.4C369.4,371.6,366.6,356,361.8,344"/>
<g>
	<path style="fill:#CCCCCC;" d="M369.4,382L369.4,382L369.4,382L369.4,382C369.4,382.4,369.4,382,369.4,382z"/>
	<path style="fill:#CCCCCC;" d="M361.8,342L361.8,342L361.8,342L361.8,342z"/>
</g>
<path d="M143.4,392H67.8c-16.8,0-38.4-15.6-38.4-33.2V82c0-2.4,1.6-4,4-4s4,1.6,4,4v276.8c0,12.8,17.6,25.2,30.4,25.2h75.6
	c2.4,0,4,1.6,4,4S145.8,392,143.4,392z"/>
<path d="M429.4,392h-58c-2.4,0-4-1.6-4-4s1.6-4,4-4h58c13.2,0,16-13.6,16-25.2V266c0-2.4,1.6-4,4-4s4,1.6,4,4v92.8
	C453.4,380,444.6,392,429.4,392z"/>
<path d="M449.4,182c-2.4,0-4-1.6-4-4V84.4c0-12.8-3.2-16.4-16-16.4H64.6c-22,0-35.2-4-35.2-25.2c0-2.4,1.6-4,4-4s4,1.6,4,4
	c0,12.8,4,17.2,27.2,17.2h364.8c17.2,0,24,6.8,24,24.4V178C453.4,180.4,451.8,182,449.4,182z"/>
<path d="M33.4,302c-2.4,0-4-1.6-4-4V24.4C29.4,6.4,50.2,0,67.8,0h326.8c19.2,0,23.2,9.6,23.2,24.8c0,2.4-1.6,4-4,4s-4-1.6-4-4
	C409.8,11.2,407,8,394.6,8H67.8c-11.2,0-30.4,3.6-30.4,16.4V298C37.4,300.4,35.8,302,33.4,302z"/>
<path d="M449.4,162c-2.4,0-4-1.6-4-4V68.8c0-13.2-3.6-16.8-16-16.8h-360c-7.6,0-13.2-7.6-13.2-18s5.2-18,13.2-18H395
	c16,0,29.6,12,31.6,27.6V44h2.8c17.2,0,24,7.2,24,24.8V158C453.4,160.4,451.8,162,449.4,162z M69.4,24c-3.2,0-5.2,5.2-5.2,10
	s2,10,5.2,10h349.2c-1.6-11.2-12-20-23.6-20H69.4z"/>
<path d="M451.8,268H323.4c-9.6,0-17.6-8-17.6-17.6V198c0-9.6,8-17.6,17.6-17.6h128.4c9.6,0,17.6,8,17.6,17.6v52.4
	C469.4,260,461.4,268,451.8,268z M323,188c-5.2,0-9.6,4.4-9.6,9.6V250c0,5.2,4.4,9.6,9.6,9.6h128.4c5.2,0,9.6-4.4,9.6-9.6v-52.4
	c0-5.2-4.4-9.6-9.6-9.6H323z"/>
<path d="M357.8,245.6c-15.6,0-28-12.4-28-28s12.8-28,28-28s28,12.4,28,28S373,245.6,357.8,245.6z M357.8,197.6c-11.2,0-20,9.2-20,20
	s9.2,20,20,20c11.2,0,20-9.2,20-20S368.6,197.6,357.8,197.6z"/>
<path d="M357.4,229.6c-6.8,0-12-5.2-12-12s5.2-12,12-12c2.4,0,4,1.6,4,4s-1.6,4-4,4s-4,1.6-4,4s1.6,4,4,4s4-1.6,4-4s1.6-4,4-4
	s4,1.6,4,4C369.4,224.4,364.2,229.6,357.4,229.6z"/>
<path d="M147.4,352H59.8c-17.2,0-30.4-14-30.4-31.6c0-2.4,1.6-4,4-4s4,1.6,4,4c0,13.2,10,23.6,22.4,23.6h87.6c2.4,0,4,1.6,4,4
	S149.8,352,147.4,352z"/>
<path d="M406.6,352h-39.2c-2.4,0-4-1.6-4-4s1.6-4,4-4h35.2l-1.6-78c0-2.4,1.6-4,4-4l0,0c2,0,4,1.6,4,4l1.6,82c0,1.2-0.4,2-1.2,2.8
	C408.6,351.6,407.4,352,406.6,352z"/>
<path d="M406.2,161.6L406.2,161.6c-2.4,0-4-2-4-4l0.4-49.6H61.4c-9.6,0-19.2,0-26-6.4C31,97.2,29,90.8,29,82c0-2.4,1.6-4,4-4
	s4,1.6,4,4c0,6.8,1.2,11.2,4,14c4,4,12,4,20.4,4h2.8h342.4c1.2,0,2,0.4,2.8,1.2c0.8,0.8,1.2,1.6,1.2,2.8l-0.4,53.6
	C410.2,160,408.6,161.6,406.2,161.6z"/>
<path d="M257.4,498.4c-64,0-116.4-52-116.4-116.4s52-116.4,116.4-116.4s116.4,52,116.4,116.4S321.4,498.4,257.4,498.4z M257.4,274
	C197.8,274,149,322.4,149,382.4c0,59.6,48.4,108.4,108.4,108.4c59.6,0,108.4-48.4,108.4-108.4C365.4,322.8,317,274,257.4,274z"/>
<path d="M311.4,392h-108c-2.4,0-4-1.6-4-4s1.6-4,4-4h108c2.4,0,4,1.6,4,4S313.8,392,311.4,392z"/>
</svg>