<?xml version="1.0" encoding="iso-8859-1"?>
<!-- Uploaded to: SVG Repo, www.svgrepo.com, Generator: SVG Repo Mixer Tools -->
<svg height="800px" width="800px" version="1.1" id="Layer_1" xmlns="http://www.w3.org/2000/svg" xmlns:xlink="http://www.w3.org/1999/xlink" 
	 viewBox="0 0 512 512" xml:space="preserve">
<circle style="fill:#FD9A0C;" cx="256" cy="256" r="256"/>
<path style="fill:#D2CFCE;" d="M420.576,150.927C385.887,96.707,325.141,60.765,256,60.765
	c-107.825,0-195.235,87.41-195.235,195.235S148.175,451.235,256,451.235c75.164,0,140.396-42.483,173.026-104.741L420.576,150.927z"
	/>
<path style="fill:#8C8484;" d="M229.231,377.377h-29.782l48.031-280.103l-91.965,35.585c-4.347,1.682-6.507,6.569-4.825,10.916
	c1.681,4.346,6.567,6.509,10.916,4.825l21.216-8.209l-39.862,236.986h-32.648c-4.661,0-8.44,3.779-8.44,8.44s3.779,8.44,8.44,8.44
	h118.919c4.661,0,8.44-3.779,8.44-8.44S233.893,377.377,229.231,377.377z"/>
<g>
	<path style="fill:#FFC066;" d="M427.969,118.45c-2.39,0-4.764-1.009-6.434-2.974c-27.483-32.333-63.372-55.756-103.79-67.737
		c-4.47-1.324-7.018-6.021-5.694-10.49c1.324-4.47,6.022-7.016,10.49-5.694c43.566,12.915,82.244,38.154,111.853,72.989
		c3.019,3.551,2.587,8.878-0.964,11.896C431.844,117.789,429.902,118.45,427.969,118.45z"/>
	<path style="fill:#FFC066;" d="M320.141,480.795c-3.641,0-7-2.374-8.088-6.043c-1.324-4.47,1.224-9.165,5.693-10.491
		c40.416-11.981,76.306-35.403,103.787-67.734c3.018-3.551,8.346-3.983,11.896-0.964c3.551,3.019,3.983,8.345,0.964,11.896
		c-29.609,34.833-68.286,60.071-111.85,72.985C321.742,480.681,320.935,480.795,320.141,480.795z"/>
</g>
<g>
	<path style="fill:#A8A2A2;" d="M339.27,252.76c-4.661,0-8.44-3.779-8.44-8.44v-5.354c0-4.661,3.779-8.44,8.44-8.44
		s8.44,3.779,8.44,8.44v5.354C347.71,248.982,343.931,252.76,339.27,252.76z"/>
	<path style="fill:#A8A2A2;" d="M295.947,215.666c-6.525,0-11.815,5.29-11.815,11.815v39.372h11.815
		c6.525,0,11.815-5.29,11.815-11.815v-27.557C307.763,220.956,302.473,215.666,295.947,215.666z"/>
	<path style="fill:#A8A2A2;" d="M261.626,257.261c-4.661,0-8.44-3.779-8.44-8.44v-21.341c0-4.661,3.779-8.44,8.44-8.44
		s8.44,3.779,8.44,8.44v21.341C270.066,253.483,266.287,257.261,261.626,257.261z"/>
	<path style="fill:#A8A2A2;" d="M451.235,256c0-38.684-11.252-74.738-30.659-105.073l-69.162,15.136
		c-5.442,1.191-9.893,6.722-9.893,12.292v16.097c0,5.57,4.452,9.153,9.893,7.962v14.2c0,4.661,3.779,8.44,8.44,8.44
		s8.44-3.779,8.44-8.44v-17.894l39.056-8.548v35.183l-37.068,6.279c-4.596,0.779-7.69,5.135-6.911,9.73
		c0.698,4.118,4.268,7.032,8.311,7.032c0.468,0,0.943-0.039,1.419-0.119l13.138-2.226v15.407l-47.237,8.002
		c-10.374,1.758-18.861,11.804-18.861,22.324v23.573h-61.327v23.525c0,16.935,13.728,30.664,30.664,30.664
		c14.308,0,26.327-9.799,29.712-23.053h25.562v21.341c0,4.661,3.779,8.44,8.44,8.44c4.661,0,8.44-3.779,8.44-8.44v-21.341h67.396
		C443.203,319.442,451.235,288.661,451.235,256z"/>
</g>
</svg>