<?xml version="1.0" encoding="iso-8859-1"?>
<!-- Uploaded to: SVG Repo, www.svgrepo.com, Generator: SVG Repo Mixer Tools -->
<svg height="800px" width="800px" version="1.1" id="Layer_1" xmlns="http://www.w3.org/2000/svg" xmlns:xlink="http://www.w3.org/1999/xlink" 
	 viewBox="0 0 512 512" xml:space="preserve">
<circle style="fill:#FFAD38;" cx="256" cy="256" r="256"/>
<path style="fill:#D2CFCE;" d="M256,60.765c107.653,0,195.235,87.582,195.235,195.235S363.653,451.235,256,451.235
	S60.765,363.653,60.765,256S148.347,60.765,256,60.765z"/>
<g>
	<path style="fill:#FFC066;" d="M121.886,114.254L180.2,11.411c-8.36,2.588-16.534,5.595-24.502,8.992L2.366,290.818
		c1.184,8.706,2.806,17.272,4.843,25.678l58.119-102.499C73.873,175.179,93.994,140.657,121.886,114.254z"/>
	<path style="fill:#FFC066;" d="M61.577,273.713l-43.553,76.81c2.592,6.518,5.452,12.898,8.55,19.14l39.283-69.28
		C63.831,291.701,62.398,282.795,61.577,273.713z"/>
	<path style="fill:#FFC066;" d="M196.456,70.062L235.73,0.798c-7.025,0.55-13.967,1.395-20.821,2.501l-43.535,76.776
		C179.442,76.179,187.822,72.833,196.456,70.062z"/>
	<path style="fill:#FFC066;" d="M76.982,333.863l-35.274,62.211c3.411,5.207,7.005,10.281,10.776,15.215l33.593-59.243
		C82.741,346.167,79.705,340.1,76.982,333.863z"/>
	<path style="fill:#FFC066;" d="M251.205,60.826l33.571-59.206c-6.141-0.686-12.345-1.156-18.609-1.4l-35.241,62.151
		C237.588,61.512,244.353,60.992,251.205,60.826z"/>
	<path style="fill:#FFC066;" d="M298.146,65.36l31.032-54.728c-5.558-1.655-11.193-3.131-16.902-4.412L280.48,62.296
		C286.458,63.047,292.349,64.08,298.146,65.36z"/>
	<path style="fill:#FFC066;" d="M102.39,376.373l-31.822,56.121c4.015,4.217,8.178,8.291,12.47,12.226l31.059-54.775
		C109.996,385.604,106.084,381.078,102.39,376.373z"/>
	<path style="fill:#FFC066;" d="M133.862,408.191l-30.319,53.47c4.531,3.365,9.177,6.585,13.932,9.65l30.079-53.047
		C142.839,415.104,138.274,411.739,133.862,408.191z"/>
	<path style="fill:#FFC066;" d="M339.59,79.59l30.064-53.02c-5.048-2.506-10.187-4.853-15.417-7.028l-30.293,53.426
		C329.271,74.952,334.491,77.163,339.59,79.59z"/>
</g>
<g>
	<path style="fill:#D2CFCE;" d="M298.146,65.36L114.097,389.946c6.16,6.522,12.766,12.617,19.764,18.244l190.08-335.223
		C315.597,69.859,306.983,67.313,298.146,65.36z"/>
	<path style="fill:#D2CFCE;" d="M256,60.765c-1.602,0-3.2,0.023-4.795,0.061L86.077,352.046c4.839,8.526,10.292,16.66,16.314,24.328
		L280.48,62.296C272.459,61.288,264.29,60.765,256,60.765z"/>
	<path style="fill:#D2CFCE;" d="M196.456,70.062L65.858,300.383c2.704,11.59,6.453,22.781,11.126,33.48L230.927,62.371
		C219.072,63.896,207.551,66.5,196.456,70.062z"/>
	<path style="fill:#D2CFCE;" d="M121.886,114.254L65.33,213.997c-2.981,13.535-4.565,27.586-4.565,42.003
		c0,5.972,0.285,11.877,0.812,17.713L171.375,80.075C153.124,88.89,136.45,100.467,121.886,114.254z"/>
</g>
<g>
	<path style="fill:#EBEAEA;" d="M65.329,213.997l56.556-99.743C93.994,140.657,73.873,175.179,65.329,213.997z"/>
	<path style="fill:#EBEAEA;" d="M171.375,80.076L61.577,273.713c0.82,9.081,2.254,17.988,4.281,26.67L196.456,70.062
		C187.822,72.833,179.442,76.179,171.375,80.076z"/>
	<path style="fill:#EBEAEA;" d="M230.927,62.371L76.982,333.863c2.723,6.236,5.758,12.304,9.093,18.181l165.13-291.219
		C244.353,60.992,237.588,61.512,230.927,62.371z"/>
	<path style="fill:#EBEAEA;" d="M280.48,62.296L102.39,376.373c3.694,4.705,7.606,9.229,11.707,13.573L298.146,65.36
		C292.349,64.08,286.458,63.047,280.48,62.296z"/>
	<path style="fill:#EBEAEA;" d="M133.862,408.191c4.412,3.548,8.977,6.914,13.691,10.075L339.59,79.59
		c-5.099-2.426-10.319-4.637-15.648-6.622L133.862,408.191z"/>
	<path style="fill:#EBEAEA;" d="M256,391.225c-31.339,0-61.889-10.968-86.019-30.882c-3.594-2.967-4.104-8.287-1.138-11.882
		c2.966-3.594,8.285-4.104,11.882-1.138c21.115,17.425,47.848,27.021,75.276,27.021c65.257,0,118.346-53.09,118.346-118.346
		c0-50.307-31.895-95.226-79.366-111.779c-4.401-1.535-6.726-6.347-5.191-10.748c1.536-4.401,6.347-6.724,10.747-5.191
		c54.244,18.915,90.688,70.24,90.688,127.718C391.225,330.564,330.564,391.225,256,391.225z"/>
</g>
<path style="fill:#D2CFCE;" d="M200.059,166.255l-14.045,64.693c103.711,0.609,166.591,59.511,180.135,120.339l19.411-15.285
	C389.467,234.269,281.869,166.255,200.059,166.255z"/>
<path style="fill:#BCB6B8;" d="M222.052,163.258c-5.935,0-20.953,0.305-26.824,0.908v16.147c8.662-0.117,24.346-0.176,26.824-0.176
	c85.542,0,155.165,69.472,155.42,154.956l-6.807,8.668c-21.719-71.798-88.468-122.254-164.923-122.254c-0.106,0-10.831,0-17.586,0
	v17.195c3.305-0.21,14.259-0.316,17.586-0.316c72.873,0,135.965,50.816,151.693,121.455c-27.268,26.68-63.111,41.325-101.433,41.325
	c-4.661,0-8.44,3.779-8.44,8.44s3.779,8.44,8.44,8.44c44.426,0,85.872-17.623,116.705-49.622
	c7.619-7.908,14.455-16.615,20.318-25.878c0.862-1.362,1.285-2.887,1.309-4.389c0.012-0.865,0.019-1.732,0.019-2.599
	C394.35,240.552,317.057,163.258,222.052,163.258z"/>
<path style="fill:#A8A2A2;" d="M221.43,102.714l-91.138,35.264c-4.347,1.682-6.507,6.569-4.825,10.916
	c1.294,3.345,4.489,5.396,7.874,5.396c1.013,0,2.042-0.183,3.044-0.571l24.186-9.358L136.012,290.79h-16.926
	c-4.661,0-8.44,3.779-8.44,8.44s3.779,8.44,8.44,8.44h86.339c4.661,0,8.44-3.779,8.44-8.44s-3.779-8.44-8.44-8.44h-13.807
	L221.43,102.714z"/>
</svg>