<?xml version="1.0" encoding="iso-8859-1"?>
<!-- Uploaded to: SVG Repo, www.svgrepo.com, Generator: SVG Repo Mixer Tools -->
<svg height="800px" width="800px" version="1.1" id="Layer_1" xmlns="http://www.w3.org/2000/svg" xmlns:xlink="http://www.w3.org/1999/xlink" 
	 viewBox="0 0 512 512" xml:space="preserve">
<path style="fill:#F7603E;" d="M449.672,207.119c0-9.223-7.477-16.7-16.7-16.7H16.7c-9.223,0-16.7,7.477-16.7,16.7v216.422
	c0,9.223,7.477,16.7,16.7,16.7h416.274c9.223,0,16.7-7.477,16.7-16.7V207.119H449.672z"/>
<path style="fill:#BF2717;" d="M449.672,207.119c0-9.223-7.477-16.7-16.7-16.7H224.53V440.24h208.442c9.223,0,16.7-7.477,16.7-16.7
	V207.119z"/>
<path style="fill:#FF9059;" d="M17.148,190.419C7.677,190.419,0,198.096,0,207.567v84.882h16.7c47.051,0,85.33-38.279,85.33-85.331
	v-16.7H17.148V190.419z"/>
<path style="fill:#F53000;" d="M347.642,190.419v16.7c0,47.052,38.279,85.331,85.331,85.331h16.7v-84.882
	c0-9.471-7.677-17.148-17.148-17.148h-84.883V190.419z"/>
<path style="fill:#FF9059;" d="M102.03,423.145c0-47.052-38.279-85.331-85.33-85.331H0v84.882c0,9.471,7.677,17.148,17.148,17.148
	h84.882V423.145z"/>
<path style="fill:#F53000;" d="M432.973,337.814c-47.052,0-85.331,38.279-85.331,85.331v16.7h84.882
	c9.471,0,17.148-7.677,17.148-17.148v-84.882h-16.699V337.814z"/>
<path style="fill:#FF9059;" d="M224.532,232.704c-38.611,0-70.022,37.066-70.022,82.625s31.412,82.625,70.022,82.625
	s70.022-37.066,70.022-82.625S263.141,232.704,224.532,232.704z"/>
<path style="fill:#F53000;" d="M224.532,249.942c36.144,0,65.975,32.482,69.64,74.007c0.251-2.835,0.382-5.708,0.382-8.619
	c0-45.56-31.412-82.625-70.022-82.625c-38.611,0-70.022,37.066-70.022,82.625c0,2.91,0.131,5.785,0.382,8.619
	C158.555,282.425,188.388,249.942,224.532,249.942z"/>
<path style="fill:#F7603E;" d="M460.986,128.861H51.016c-9.223,0-16.7,7.477-16.7,16.7s7.477,16.7,16.7,16.7h409.97
	c9.223,0,16.7-7.477,16.7-16.7S470.208,128.861,460.986,128.861z"/>
<path style="fill:#BF2717;" d="M495.3,71.759H85.33c-9.223,0-16.7,7.477-16.7,16.7s7.477,16.7,16.7,16.7H495.3
	c9.223,0,16.7-7.477,16.7-16.7S504.524,71.759,495.3,71.759z"/>
<path style="fill:#F53000;" d="M224.837,232.713v165.232c38.47-0.196,69.717-37.177,69.717-82.616S263.306,232.909,224.837,232.713z
	"/>
<path style="fill:#FAE246;" d="M406.038,416.098H35.415c-5.951,0-10.774-4.824-10.774-10.774V224.1
	c0-5.951,4.824-10.774,10.774-10.774h370.623c5.951,0,10.774,4.824,10.774,10.774v181.225
	C416.811,411.274,411.989,416.098,406.038,416.098z M46.188,394.55h349.076V234.874H46.188V394.55z"/>
<path style="fill:#E3C129;" d="M406.038,213.327H224.53v21.548h170.733v159.676H224.53v21.548h181.507
	c5.951,0,10.774-4.824,10.774-10.774V224.1C416.811,218.149,411.989,213.327,406.038,213.327z"/>
</svg>