<?xml version="1.0" encoding="iso-8859-1"?>
<!-- Uploaded to: SVG Repo, www.svgrepo.com, Generator: SVG Repo Mixer Tools -->
<svg height="800px" width="800px" version="1.1" id="Layer_1" xmlns="http://www.w3.org/2000/svg" xmlns:xlink="http://www.w3.org/1999/xlink" 
	 viewBox="0 0 512 512" xml:space="preserve">
<path style="fill:#E8E8E8;" d="M188.992,100.496C123.264,100.496,70,153.776,70,219.488c0,5.744,0.544,11.36,1.328,16.88
	C31.424,240.784,0,274.464,0,315.504v16c0,44,36,80,80,80h352c44,0,80-36,80-80v-16c0-44-36-80-80-80h-30.608
	c0.192-2,0.608-3.952,0.608-6c0-35.904-29.104-64.992-65.008-64.992c-13.872,0-26.656,4.416-37.2,11.808
	C282.496,131.968,239.472,100.496,188.992,100.496L188.992,100.496z"/>
<circle style="fill:#333333;" cx="186.96" cy="220.48" r="39.68"/>
<path style="fill:#0BA4E0;" d="M255.488,340.752c0-37.84-30.672-68.512-68.528-68.512s-68.528,30.672-68.528,68.512H255.488z"/>
</svg>