<?xml version="1.0" encoding="iso-8859-1"?>
<!-- Uploaded to: SVG Repo, www.svgrepo.com, Generator: SVG Repo Mixer Tools -->
<svg version="1.1" id="Layer_1" xmlns="http://www.w3.org/2000/svg" xmlns:xlink="http://www.w3.org/1999/xlink" 
	 viewBox="0 0 512 512" xml:space="preserve">
<path d="M358.584,512H153.416c-21.864-0.064-39.568-17.768-39.632-39.632V39.632C113.848,17.768,131.552,0.064,153.416,0h205.168
	c21.864,0.064,39.568,17.768,39.632,39.632v432.736C398.144,494.224,380.44,511.928,358.584,512z"/>
<rect x="132.544" y="40.4" style="fill:#FFFFFF;" width="246.912" height="403.76"/>
<g>
	<path style="fill:#CCCCCC;" d="M293.032,24.424h-50.528c-2.28-0.008-4.12-1.848-4.128-4.128l0,0c0.008-2.28,1.848-4.12,4.128-4.128
		h50.528c2.28,0.008,4.12,1.848,4.128,4.128l0,0C297.152,22.576,295.312,24.416,293.032,24.424z"/>
	<circle style="fill:#CCCCCC;" cx="218.968" cy="20.296" r="4.128"/>
	<path style="fill:#CCCCCC;" d="M256,497.6c-10.784,0-19.52-8.736-19.52-19.52s8.736-19.52,19.52-19.52s19.52,8.736,19.52,19.52l0,0
		C275.504,488.856,266.776,497.584,256,497.6z M256,462.552c-8.568,0-15.52,6.952-15.52,15.52s6.952,15.52,15.52,15.52
		c8.568,0,15.52-6.952,15.52-15.52l0,0c0.008-8.584-6.936-15.544-15.52-15.552l0,0L256,462.552L256,462.552z"/>
</g>
<path style="fill:#F91E1E;" d="M74.68,97.944v54.8c0,25.032,20.296,45.328,45.328,45.328s45.328-20.296,45.328-45.328
	c0,25.032,20.296,45.328,45.328,45.328s45.328-20.296,45.328-45.328c0,25.032,20.296,45.328,45.328,45.328
	s45.328-20.296,45.328-45.328c0,25.032,20.296,45.328,45.328,45.328s45.328-20.296,45.328-45.328v-54.8H74.68z"/>
<g>
	<polygon style="fill:#E21B1B;" points="132.624,40.384 74.68,97.944 437.32,97.944 379.376,40.384 	"/>
	<rect x="166.52" y="233.92" style="fill:#E21B1B;" width="79.2" height="79.2"/>
</g>
<rect x="266.24" y="233.92" style="fill:#E2E2E2;" width="79.2" height="79.2"/>
<rect x="166.52" y="329.6" width="79.2" height="79.2"/>
<rect x="266.24" y="329.6" style="fill:#999999;" width="79.2" height="79.2"/>
</svg>