<?xml version="1.0" encoding="iso-8859-1"?>
<!-- Uploaded to: SVG Repo, www.svgrepo.com, Generator: SVG Repo Mixer Tools -->
<svg height="800px" width="800px" version="1.1" id="Layer_1" xmlns="http://www.w3.org/2000/svg" xmlns:xlink="http://www.w3.org/1999/xlink" 
	 viewBox="0 0 512 512" xml:space="preserve">
<circle style="fill:#273B7A;" cx="256" cy="256" r="256"/>
<path style="fill:#121149;" d="M166.3,336.772l164.495,164.114c100.045-30.518,174.07-120.653,180.702-229.014L375.811,136.189
	L166.3,336.772z"/>
<path style="fill:#FFC61B;" d="M375.811,136.189v126.407c0,33.559-15.801,65.16-42.648,85.297L256,405.764l-77.164-57.873
	c-26.848-20.135-42.648-51.736-42.648-85.295V136.189L256,106.236L375.811,136.189z"/>
<path style="fill:#D48B07;" d="M256,106.236l-1.148,0.288v298.38l1.148,0.862l77.164-57.873
	c26.846-20.137,42.648-51.738,42.648-85.297V136.189L256,106.236z"/>
<polygon style="fill:#FEE187;" points="256,106.236 136.189,136.189 136.189,166.141 256,136.189 375.811,166.141 375.811,136.189 
	"/>
<polygon style="fill:#FFC61B;" points="256,106.236 254.852,106.524 254.852,136.476 256,136.189 375.811,166.141 375.811,136.189 
	"/>
<path style="fill:#273B7A;" d="M293.71,226.047h-15.515v-29.953c0-12.24-9.956-22.195-22.195-22.195s-22.195,9.956-22.195,22.195
	v29.953H218.29v-29.953c0-20.794,16.917-37.71,37.71-37.71s37.71,16.917,37.71,37.71V226.047z"/>
<path style="fill:#121149;" d="M256,158.384c-0.384,0-0.765,0.017-1.148,0.029v15.544c0.383-0.019,0.76-0.059,1.148-0.059
	c12.24,0,22.195,9.956,22.195,22.195v29.953h15.515v-29.953C293.71,175.301,276.792,158.384,256,158.384z"/>
<path style="fill:#366695;" d="M219.51,313.637h72.978c12.933,0,23.416-10.485,23.416-23.416v-66.443H196.093v66.443
	C196.094,303.152,206.577,313.637,219.51,313.637z"/>
<path style="fill:#273B7A;" d="M254.852,223.778v89.859h37.638c12.933,0,23.416-10.485,23.416-23.416v-66.443L254.852,223.778
	L254.852,223.778z"/>
</svg>