<?xml version="1.0" encoding="iso-8859-1"?>
<!-- Uploaded to: SVG Repo, www.svgrepo.com, Generator: SVG Repo Mixer Tools -->
<svg version="1.1" id="Layer_1" xmlns="http://www.w3.org/2000/svg" xmlns:xlink="http://www.w3.org/1999/xlink" 
	 viewBox="0 0 512.016 512.016" xml:space="preserve">
<circle cx="377.128" cy="450.56" r="61.456"/>
<circle style="fill:#999999;" cx="377.128" cy="450.56" r="29.856"/>
<polygon points="145.544,151.36 105.184,31.92 0.68,31.92 0.68,0 128.096,0 175.784,141.136 "/>
<circle cx="191.752" cy="450.56" r="61.456"/>
<polygon style="fill:#FFFFFF;" points="147.824,353.584 78.992,132.552 499.992,132.552 421.216,353.584 "/>
<path style="fill:#E21B1B;" d="M488.648,140.56l-73.072,205.064H153.704l-63.84-205.032h398.784 M511.336,124.592H68.128
	l73.808,237.032h284.92L511.336,124.592z"/>
<circle style="fill:#999999;" cx="191.752" cy="450.56" r="29.856"/>
<circle style="fill:#E21B1B;" cx="315.664" cy="151.36" r="108"/>
<g>
	<rect x="305.688" y="111.568" style="fill:#FFFFFF;" width="20" height="99"/>
	<polygon style="fill:#FFFFFF;" points="353.04,156.08 315.664,118.704 278.288,156.08 264.152,141.936 315.664,90.424 
		367.176,141.936 	"/>
</g>
</svg>