<?xml version="1.0" encoding="iso-8859-1"?>
<!-- Uploaded to: SVG Repo, www.svgrepo.com, Generator: SVG Repo Mixer Tools -->
<svg height="800px" width="800px" version="1.1" id="Layer_1" xmlns="http://www.w3.org/2000/svg" xmlns:xlink="http://www.w3.org/1999/xlink" 
	 viewBox="0 0 512 512" xml:space="preserve">
<circle style="fill:#6B7F9E;" cx="256" cy="256" r="256"/>
<g>
	<path style="fill:#E4E7ED;" d="M257.788,52.534l86.709,50.059l86.777,50.127c1.1,0.619,1.788,1.857,1.788,3.026l0,0v100.186
		v100.186c0,1.444-0.825,2.682-2.063,3.232l-86.502,49.921l-86.777,50.127c-1.169,0.688-2.475,0.619-3.576,0l-86.709-50.059
		l-86.777-50.127c-1.1-0.619-1.788-1.857-1.788-3.026l0,0V256V155.814c0-1.444,0.825-2.682,2.063-3.232l86.502-49.921l86.777-50.127
		C255.381,51.846,256.688,51.915,257.788,52.534z M341.058,108.712L256,59.616l-85.058,49.096l-84.99,49.096V256v98.192
		l84.99,49.096L256,452.384l85.058-49.096l84.99-49.096V256v-98.192L341.058,108.712z"/>
	<path style="fill:#E4E7ED;" d="M259.163,53.978l86.64,150.107l0,0l86.777,150.313c0.963,1.719,0.413,3.851-1.306,4.813
		c-0.55,0.344-1.169,0.481-1.788,0.481l0,0H255.931H82.377c-1.925,0-3.507-1.582-3.507-3.507c0-0.756,0.206-1.444,0.619-2.063
		l86.64-150.038l0,0l0,0l86.777-150.313c0.963-1.719,3.163-2.269,4.813-1.306c0.619,0.344,1.1,0.894,1.375,1.513H259.163z
		 M339.752,207.592L256,62.573l-83.752,145.019l0,0L88.496,352.61H256h167.435l-83.752-145.019l0,0l0,0H339.752z"/>
	<path style="fill:#E4E7ED;" d="M256,449.358l83.752-145.019l0,0l0,0l83.752-145.019H256.069H88.565l83.752,145.019l0,0
		l83.752,145.019H256z M345.803,307.846l-86.64,150.107c-0.275,0.619-0.756,1.1-1.375,1.513c-1.719,0.963-3.851,0.413-4.813-1.306
		l-86.777-150.313l0,0l0,0l-86.64-150.038c-0.413-0.55-0.619-1.306-0.619-2.063c0-1.925,1.582-3.507,3.507-3.507H256h173.555l0,0
		c0.619,0,1.238,0.138,1.788,0.481c1.719,0.963,2.269,3.163,1.306,4.813l-86.777,150.313l0,0H345.803z"/>
</g>
<circle style="fill:#FFE356;" cx="82.445" cy="155.814" r="24.617"/>
<circle style="fill:#83CF8F;" cx="256" cy="55.559" r="24.617"/>
<circle style="fill:#FF7069;" cx="429.555" cy="155.814" r="24.617"/>
<circle style="fill:#FFE356;" cx="429.555" cy="356.186" r="24.617"/>
<circle style="fill:#83CF8F;" cx="256" cy="456.44" r="24.617"/>
<circle style="fill:#FF7069;" cx="82.445" cy="356.186" r="24.617"/>
<path style="fill:#E4E7ED;" d="M256,187.101c38.025,0,68.899,30.874,68.899,68.899S294.025,324.899,256,324.899
	S187.101,294.025,187.101,256S217.975,187.101,256,187.101z"/>
<path style="fill:#FF7069;" d="M229.183,284.192h2.063l11.896-6.464l1.925-7.564c-2.819-2.819-5.776-7.701-8.389-13.615
	c-0.206,0.069-0.413,0.069-0.688,0.069c-3.163,0-6.257-3.438-6.945-7.633c-0.55-3.301,0.55-6.12,2.544-7.151
	c-2.682-13.546-4.401-34.312,18.909-39.469c13.959-3.094,18.978,7.701,19.597,8.87c8.458-4.745,13.821,2.407,15.196,6.12
	c2.475,6.807,1.719,19.46,0.413,25.098c1.375,1.375,2.063,3.782,1.65,6.532c-0.688,4.126-3.713,7.495-6.807,7.633
	c-2.475,5.501-5.845,10.177-9.214,13.546l1.925,7.564h0.138l11.552,6.464h2.2c10.177,0,19.116,5.363,23.929,13.271
	c-12.583,16.709-32.524,27.436-55.009,27.436c-20.972,0-39.813-9.42-52.465-24.204c4.194-9.627,14.096-16.503,25.648-16.503H229.183
	z"/>
</svg>