<?xml version="1.0" encoding="iso-8859-1"?>
<!-- Uploaded to: SVG Repo, www.svgrepo.com, Generator: SVG Repo Mixer Tools -->
<svg version="1.1" id="Layer_1" xmlns="http://www.w3.org/2000/svg" xmlns:xlink="http://www.w3.org/1999/xlink" 
	 viewBox="0 0 511.992 511.992" xml:space="preserve">
<path style="fill:#E2E2E2;" d="M36.328,314.4V103.776h308.056V314.4H36.328z"/>
<g>
	<path style="fill:#666666;" d="M0.928,60.488v57.6c0.344,26.312,21.944,47.36,48.256,47.016
		c25.824-0.336,46.688-21.192,47.016-47.016c0.344,26.312,21.944,47.36,48.256,47.016c25.832-0.336,46.688-21.192,47.016-47.016
		c0.344,26.312,21.944,47.36,48.256,47.016c25.824-0.336,46.688-21.192,47.016-47.016c0.344,26.312,21.944,47.36,48.256,47.016
		c25.824-0.336,46.688-21.192,47.016-47.016v-57.6C382.016,60.488,0.928,60.488,0.928,60.488z"/>
	<rect y="314.4" style="fill:#666666;" width="380.84" height="23.816"/>
</g>
<rect x="142.352" y="204.264" width="96" height="110.16"/>
<polygon points="321.128,0 382.016,60.488 0.928,60.488 61.816,0 "/>
<circle style="fill:#E21B1B;" cx="393.28" cy="393.28" r="118.712"/>
<g transform="matrix(-0.7071 0.7071 -0.7071 -0.7071 118.69 49.16)">
	<rect x="-5.279" y="-447.535" style="fill:#FFFFFF;" width="108.816" height="20"/>
	<rect x="39.129" y="-491.943" style="fill:#FFFFFF;" width="20" height="108.816"/>
</g>
</svg>