<?xml version="1.0" encoding="iso-8859-1"?>
<!-- Uploaded to: SVG Repo, www.svgrepo.com, Generator: SVG Repo Mixer Tools -->
<svg height="800px" width="800px" version="1.1" id="Layer_1" xmlns="http://www.w3.org/2000/svg" xmlns:xlink="http://www.w3.org/1999/xlink" 
	 viewBox="0 0 508 508" xml:space="preserve">
<path style="fill:#7D8B95;" d="M64,65.55l17.2,38h3.2h20.8l-20.4-45.2c-7.2-16-19.2-26.8-42.4-26.8H6v20h35.6
	C56.8,51.55,60,56.75,64,65.55z"/>
<path style="fill:#EFDC81;" d="M196.8,335.55h10.4h21.6h247.6c8.8,0,17.6-7.2,17.6-16v-196H90l84.8,196.4
	C178,327.95,188,335.55,196.8,335.55z"/>
<g>
	<path style="fill:#F4EFEF;" d="M388,303.55c5.6,0,10-4.4,10-10v-134.4c0-5.6-4.4-10-10-10s-10,4.4-10,10v134.4
		C378,299.15,382.4,303.55,388,303.55z"/>
	<path style="fill:#F4EFEF;" d="M448,303.55c5.6,0,10-4.4,10-10v-134.4c0-5.6-4.4-10-10-10c-5.6,0-10,4.4-10,10v134.4
		C438,299.15,442.4,303.55,448,303.55z"/>
	<path style="fill:#F4EFEF;" d="M332,303.55c5.6,0,10-4.4,10-10v-54h-20v54.4C322,299.15,326.4,303.55,332,303.55z"/>
	<path style="fill:#F4EFEF;" d="M272,303.55c5.6,0,10-4.4,10-10v-54h-20v54.4C262,299.15,266.4,303.55,272,303.55z"/>
	<path style="fill:#F4EFEF;" d="M220,303.55c5.6,0,10-4.4,10-10v-54l-20,0.4v54C210,299.15,214.4,303.55,220,303.55z"/>
	<path style="fill:#F4EFEF;" d="M178,159.15c0-5.6-2.4-10-8-10s-8,4.4-8,10v43.6c0,5.6,2.4,10,8,10s8-4.4,8-10V159.15z"/>
</g>
<g>
	<path style="fill:#7D8B95;" d="M172,402.75c-24,0-43.2,19.2-43.2,43.2s19.2,43.2,43.2,43.2s43.2-19.2,43.2-43.2
		C215.2,421.95,196,402.75,172,402.75z"/>
	<path style="fill:#7D8B95;" d="M460.8,489.15c24,0,43.2-19.2,43.2-43.2s-19.2-43.2-43.2-43.2s-43.2,19.2-43.2,43.2
		S436.8,489.15,460.8,489.15z"/>
</g>
<g>
	<path style="fill:#2D414E;" d="M187.6,103.55H80.8c-4.4,0-7.2,6-7.2,10.4v4c0,4.4,2.8,5.6,7.2,5.6h96.8L187.6,103.55z"/>
	<path style="fill:#2D414E;" d="M496,103.55H388.4l13.6,20h94.4c4.4,0,6-1.2,6-5.6v-4C502,109.55,500.4,103.55,496,103.55z"/>
</g>
<polygon style="fill:#DF5C4E;" points="290.8,17.15 203.6,123.55 238,123.55 238,125.95 238,219.55 342,219.55 342,126.35 
	342,123.55 378,123.55 "/>
<path d="M274,307.55c-7.6,0-14-6-14-14v-56.4c0-2.4,1.6-4,4-4h20c2.4,0,4,1.6,4,4v56.4C288,301.55,281.6,307.55,274,307.55z
	 M268,241.55v52.4c0,3.2,2.8,6,6,6s6-2.8,6-6v-52.4H268z"/>
<path d="M222,307.55c-7.6,0-14-6-14-14v-56.4c0-2.4,1.6-4,4-4h20c2.4,0,4,1.6,4,4v56.4C236,301.55,229.6,307.55,222,307.55z
	 M216,241.55v52.4c0,3.2,2.8,6,6,6s6-2.8,6-6v-52.4H216z"/>
<path d="M170,219.55c-7.6,0-14-6-14-14v-46.4c0-7.6,6.4-14,14-14s14,6,14,14v46.4C184,213.55,177.6,219.55,170,219.55z M170,153.55
	c-3.2,0-6,2.8-6,6v46.4c0,3.2,2.8,6,6,6s6-2.8,6-6v-46.4C176,156.35,173.2,153.55,170,153.55z"/>
<path d="M334,307.55c-7.6,0-14-6-14-14v-56.4c0-2.4,1.6-4,4-4h20c2.4,0,4,1.6,4,4v56.4C348,301.55,341.6,307.55,334,307.55z
	 M328,241.55v52.4c0,3.2,2.8,6,6,6s6-2.8,6-6v-52.4H328z"/>
<path d="M390,307.55c-7.6,0-14-6-14-14v-134.4c0-7.6,6.4-14,14-14s14,6,14,14v134.4C404,301.55,397.6,307.55,390,307.55z
	 M390,153.55c-3.2,0-6,2.8-6,6v134.4c0,3.2,2.8,6,6,6s6-2.8,6-6v-134.4C396,156.35,393.2,153.55,390,153.55z"/>
<path d="M446,307.55c-7.6,0-14-6-14-14v-134.4c0-7.6,6.4-14,14-14s14,6,14,14v134.4C460,301.55,453.6,307.55,446,307.55z
	 M446,153.55c-3.2,0-6,2.8-6,6v134.4c0,3.2,2.8,6,6,6s6-2.8,6-6v-134.4C452,156.35,449.2,153.55,446,153.55z"/>
<path d="M85.2,107.55c-1.6,0-2.8-0.8-3.6-2.4l-17.2-38c-3.2-6.8-4.8-9.6-18.8-9.6H4c-2.4,0-4-1.6-4-4v-20c0-2.4,1.6-4,4-4h42.4
	c23.2,0,37.6,8.8,46,27.2l20.4,43.6c0.8,2,0,4.4-2,5.2c-2,0.8-4.4,0-5.2-2l-20.4-43.6c-7.2-16-18.8-22.8-38.8-22.8H8v12h37.6
	c16,0,20.8,3.6,26,14.4l17.2,38c0.8,2,0,4.4-2,5.2C86.4,107.55,86,107.55,85.2,107.55z"/>
<path d="M174,129.55H83.2c-6.4,0-15.2-6.8-15.2-13.6v-4c0-6.8,7.6-10.4,15.2-10.4H186c2.4,0,4,1.6,4,4s-1.6,4-4,4H83.2
	c-3.6,0-6.8,1.6-7.2,2.4v4c0,1.6,4.4,5.6,7.2,5.6H174c2.4,0,4,1.6,4,4S176.4,129.55,174,129.55z"/>
<path d="M494,129.55h-88c-2.4,0-4-1.6-4-4s1.6-4,4-4h88c0.8,0,2-2.4,2-5.6v-4c0-1.6,0-2.4-2.8-2.4H394c-2.4,0-4-1.6-4-4s1.6-4,4-4
	h99.2c6.8,0,10.8,4,10.8,10.4v4C504,123.95,500,129.55,494,129.55z"/>
<path d="M480.4,341.55H200.8c-10.8,0-23.2-12-26.8-20.8l-82-190.8c-0.8-2,0-4.4,2-5.2c2-0.8,4.4,0,5.2,2l82,190.8
	c3.2,7.2,12.8,16,19.6,16h279.6c5.2,0,7.6-10.4,7.6-18v-188c0-2.4,1.6-4,4-4s4,1.6,4,4v188C496,327.95,491.2,341.55,480.4,341.55z"
	/>
<path d="M172,493.15c-26,0-47.2-21.2-47.2-47.2s21.2-47.2,47.2-47.2s47.2,21.2,47.2,47.2S198,493.15,172,493.15z M172,406.75
	c-21.6,0-39.2,17.6-39.2,39.2s17.6,39.2,39.2,39.2s39.2-17.6,39.2-39.2S193.6,406.75,172,406.75z"/>
<path d="M172,473.15c-15.2,0-27.6-12.4-27.6-27.6s12.4-27.6,27.6-27.6c2.4,0,4,1.6,4,4s-1.6,4-4,4c-10.8,0-19.6,8.8-19.6,19.6
	c0,10.8,8.8,19.6,19.6,19.6s19.6-8.8,19.6-19.6c0-2.4,1.6-4,4-4s4,1.6,4,4C199.6,461.15,187.2,473.15,172,473.15z"/>
<path d="M460.8,493.15c-26,0-47.2-21.2-47.2-47.2s21.2-47.2,47.2-47.2s47.2,21.2,47.2,47.2S486.8,493.15,460.8,493.15z
	 M460.8,406.75c-21.6,0-39.2,17.6-39.2,39.2s17.6,39.2,39.2,39.2s39.2-17.6,39.2-39.2S482.4,406.75,460.8,406.75z"/>
<path d="M460.8,473.15c-15.2,0-27.6-12.4-27.6-27.6s12.4-27.6,27.6-27.6c2.4,0,4,1.6,4,4s-1.6,4-4,4c-10.8,0-19.6,8.8-19.6,19.6
	c0,10.8,8.8,19.6,19.6,19.6c10.8,0,19.6-8.8,19.6-19.6c0-2.4,1.6-4,4-4s4,1.6,4,4C488,461.15,476,473.15,460.8,473.15z"/>
<path d="M418,461.55H214c-2.4,0-4-1.6-4-4s1.6-4,4-4h204c2.4,0,4,1.6,4,4S420.4,461.55,418,461.55z"/>
<path d="M418,441.55H218c-2.4,0-4-1.6-4-4s1.6-4,4-4h200c2.4,0,4,1.6,4,4S420.4,441.55,418,441.55z"/>
<path d="M198.8,413.95c-0.4,0-1.2,0-1.6-0.4c-2-0.8-2.8-3.2-2-5.2l30.8-71.6c0.8-2,3.2-2.8,5.2-2s2.8,3.2,2,5.2l-30.8,71.6
	C201.6,413.15,200.4,413.95,198.8,413.95z"/>
<path d="M180.8,405.95c-0.4,0-1.2,0-1.6-0.4c-2-0.8-2.8-3.2-2-5.2l26.4-61.6c0.8-2,3.2-2.8,5.2-2s2.8,3.2,2,5.2l-26.4,61.6
	C183.6,404.75,182.4,405.95,180.8,405.95z"/>
<path d="M340,225.55H236c-2.4,0-4-1.6-4-4v-92h-28.4c-1.6,0-2.8-0.8-3.6-2.4c-0.8-1.2-0.4-3.2,0.4-4.4l87.2-106.4c1.6-2,4.8-2,6,0
	l87.2,106.4c0.8,1.2,1.2,2.8,0.4,4.4c-0.8,1.2-2,2.4-3.6,2.4h-34v92C344,223.95,342.4,225.55,340,225.55z M240,217.55h96v-92
	c0-2.4,1.6-4,4-4h29.6l-78.8-96l-78.8,96h23.6c2.4,0,4,1.6,4,4v92H240z"/>
</svg>