<?xml version="1.0" encoding="iso-8859-1"?>
<!-- Uploaded to: SVG Repo, www.svgrepo.com, Generator: SVG Repo Mixer Tools -->
<svg height="800px" width="800px" version="1.1" id="Layer_1" xmlns="http://www.w3.org/2000/svg" xmlns:xlink="http://www.w3.org/1999/xlink" 
	 viewBox="0 0 508 508" xml:space="preserve">
<path style="fill:#7D8B95;" d="M64,69l17.2,38h3.2h20.8L84.8,61.8C77.6,45.8,65.6,35,42.4,35H6v20h35.6C56.8,55,60,60.2,64,69z"/>
<path style="fill:#EFDC81;" d="M196.8,339h10.4h21.6h247.6c8.8,0,17.6-8.4,17.6-17.2V127H90l84.8,196.4C178,331.4,188,339,196.8,339
	z"/>
<g>
	<path style="fill:#F4EFEF;" d="M392,305.8c5.6,0,10-4.4,10-10V161.4c0-5.6-4.4-10-10-10s-10,4.4-10,10v134.4
		C382,301.4,386.4,305.8,392,305.8z"/>
	<path style="fill:#F4EFEF;" d="M448,305.8c5.6,0,10-4.4,10-10V161.4c0-5.6-4.4-10-10-10c-5.6,0-10,4.4-10,10v134.4
		C438,301.4,442.4,305.8,448,305.8z"/>
	<path style="fill:#F4EFEF;" d="M336,305.8c5.6,0,10-4.4,10-10V175l-20,23.6v97.6C326,301.4,330.4,305.8,336,305.8z"/>
	<path style="fill:#F4EFEF;" d="M276,305.8c5.6,0,10-4.4,10-10v-66l-20-16v81.6C266,301.4,270.4,305.8,276,305.8z"/>
	<path style="fill:#F4EFEF;" d="M224,309.8c5.6,0,10-4.4,10-10V181l-20-17.2v136C214,305.4,218.4,309.8,224,309.8z"/>
	<path style="fill:#F4EFEF;" d="M178,161.4c0-5.6-2.4-10-8-10s-8,4.4-8,10V205c0,5.6,2.4,10,8,10s8-4.4,8-10V161.4z"/>
</g>
<g>
	<path style="fill:#7D8B95;" d="M172,405c-24,0-43.2,19.2-43.2,43.2s19.2,43.2,43.2,43.2s43.2-19.2,43.2-43.2S196,405,172,405z"/>
	<path style="fill:#7D8B95;" d="M460.8,491.4c24,0,43.2-19.2,43.2-43.2S484.8,405,460.8,405s-43.2,19.2-43.2,43.2
		C417.6,472.2,436.8,491.4,460.8,491.4z"/>
</g>
<g>
	<path style="fill:#2D414E;" d="M398,107h98c4.4,0,6,4.8,6,9.2v4c0,4.4-1.6,6.8-6,6.8H385.2L398,107z"/>
	<path style="fill:#2D414E;" d="M181.2,111h-100c-4.4,0-7.2,4.8-7.2,9.2v4c0,4.4,2.8,6.8,7.2,6.8h111.2L181.2,111z"/>
</g>
<polygon style="fill:#54B265;" points="342,107 342,15 238,15 238,107 203.6,107 290.8,213.4 378,107 "/>
<path d="M85.2,110.2c-1.6,0-2.8-0.8-3.6-2.4l-17.2-38c-3.2-6.8-4.4-9.2-18.8-9.2H4c-2.4,0-4-1.6-4-4v-20c0-2.4,1.6-4,4-4h42.4
	c23.6,0,37.6,8.4,46,26.8l20.4,42.8c0.8,2,0,4.4-2,5.2c-2,0.8-4.4,0-5.2-2L85.2,62.6c-6.8-15.6-18.4-22-38.8-22H8v12h37.6
	c16.4,0,21.2,3.6,26,13.6l17.2,38c0.8,2,0,4.4-2,5.2C86.4,110.2,86,110.2,85.2,110.2z"/>
<path d="M190,133H83.2c-6.8,0-15.2-8.4-15.2-14.8v-4c0-2.8,1.6-9.2,15.2-9.2H178c2.4,0,4,1.6,4,4s-1.6,4-4,4H83.2
	c-4.4,0-6.8,0.8-7.2,1.2v3.6c0,2,4.8,6.8,7.2,6.8H190c2.4,0,4,1.6,4,4S192.4,133,190,133z"/>
<path d="M494,133H390c-2.4,0-4-1.6-4-4s1.6-4,4-4h104c0.8-0.4,2-3.2,2-6.8v-4c0-0.8,0-0.8,0-1.2c0,0-0.8,0-2.8,0H402
	c-2.4,0-4-1.6-4-4s1.6-4,4-4h91.2c2.8,0,10.8,0,10.8,9.2v4C504,125.4,500.8,133,494,133z"/>
<path d="M480.4,345H200.8c-10.8,0-22.8-12.4-26.8-21.2L92,133c-0.8-2,0-4.4,2-5.2c2-0.8,4.4,0,5.2,2l82,190.8
	c3.2,7.2,12.8,16.4,19.6,16.4h279.6c4.4,0,7.6-10,7.6-19.2V131c0-2.4,1.6-4,4-4s4,1.6,4,4v186.8C496,327,492.8,345,480.4,345z"/>
<path d="M172,495.4c-26,0-47.2-21.2-47.2-47.2S146,401,172,401s47.2,21.2,47.2,47.2C219.2,474.2,198,495.4,172,495.4z M172,409
	c-21.6,0-39.2,17.6-39.2,39.2s17.6,39.2,39.2,39.2s39.2-17.6,39.2-39.2S193.6,409,172,409z"/>
<path d="M172,475.8c-15.2,0-27.6-12.4-27.6-27.6s12.4-27.6,27.6-27.6c2.4,0,4,1.6,4,4s-1.6,4-4,4c-10.8,0-19.6,8.8-19.6,19.6
	c0,10.8,8.8,19.6,19.6,19.6s19.6-8.8,19.6-19.6c0-2.4,1.6-4,4-4s4,1.6,4,4C199.6,463.4,187.2,475.8,172,475.8z"/>
<path d="M460.8,495.4c-26,0-47.2-21.2-47.2-47.2s21.2-47.2,47.2-47.2s47.2,21.2,47.2,47.2C508,474.2,486.8,495.4,460.8,495.4z
	 M460.8,409c-21.6,0-39.2,17.6-39.2,39.2s17.6,39.2,39.2,39.2s39.2-17.6,39.2-39.2S482.4,409,460.8,409z"/>
<path d="M460.8,475.8c-15.2,0-27.6-12.4-27.6-27.6s12.4-27.6,27.6-27.6c2.4,0,4,1.6,4,4s-1.6,4-4,4c-10.8,0-19.6,8.8-19.6,19.6
	c0,10.8,8.8,19.6,19.6,19.6c10.8,0,19.6-8.8,19.6-19.6c0-2.4,1.6-4,4-4s4,1.6,4,4C488,463.4,476,475.8,460.8,475.8z"/>
<path d="M418,465H214c-2.4,0-4-1.6-4-4s1.6-4,4-4h204c2.4,0,4,1.6,4,4S420.4,465,418,465z"/>
<path d="M418,445H218c-2.4,0-4-1.6-4-4s1.6-4,4-4h200c2.4,0,4,1.6,4,4S420.4,445,418,445z"/>
<path d="M198.8,416.2c-0.4,0-1.2,0-1.6-0.4c-2-0.8-2.8-3.2-2-5.2l29.6-68.8c0.8-2,3.2-2.8,5.2-2s2.8,3.2,2,5.2l-29.6,68.8
	C201.6,415.4,200.4,416.2,198.8,416.2z"/>
<path d="M180.8,408.2c-0.4,0-1.2,0-1.6-0.4c-2-0.8-2.8-3.2-2-5.2l26.8-62c0.8-2,3.2-2.8,5.2-2s2.8,3.2,2,5.2l-26.8,62
	C183.6,407,182.4,408.2,180.8,408.2z"/>
<path d="M190,133h-48c-2.4,0-4-1.6-4-4s1.6-4,4-4h48c2.4,0,4,1.6,4,4S192.4,133,190,133z"/>
<path d="M290.8,219.4c-1.2,0-2.4-0.4-3.2-1.6l-87.2-106.4c-0.8-1.2-1.2-2.8-0.4-4.4c0.8-1.2,2-2.4,3.6-2.4H232v-88c0-2.4,1.6-4,4-4
	h104c2.4,0,4,1.6,4,4v88h34c1.6,0,2.8,0.8,3.6,2.4c0.8,1.2,0.4,3.2-0.4,4.4L294,217.8C293.2,218.6,292,219.4,290.8,219.4z
	 M212.4,113l78.8,96l78.8-96h-29.6c-2.4,0-4-1.6-4-4V21h-96v88c0,2.4-1.6,4-4,4H212.4z"/>
<path d="M274,310.2c-7.6,0-14-6-14-14V211c0-1.6,1.2-3.2,2.4-3.6c1.6-0.4,3.2,0,4.4,1.2l20,23.2c0.8,0.8,0.8,1.6,0.8,2.8v62
	C288,303.8,281.6,310.2,274,310.2z M268,221.8v74.4c0,3.2,2.8,6,6,6s6-2.8,6-6v-60.8L268,221.8z"/>
<path d="M222,310.2c-7.6,0-14-6-14-14V161.8c0-1.6,0.8-2.8,2-3.6c1.2-0.8,2.8-0.4,4,0.4l20,14c1.2,0.8,1.6,2,1.6,3.2v120.8
	C236,303.8,229.6,310.2,222,310.2z M216,169.4v126.8c0,3.2,2.8,6,6,6s6-2.8,6-6V177.8L216,169.4z"/>
<path d="M170,222.2c-7.6,0-14-6-14-14v-46.4c0-7.6,6.4-14,14-14s14,6,14,14v46.4C184,215.8,177.6,222.2,170,222.2z M170,155.8
	c-3.2,0-6,2.8-6,6v46.4c0,3.2,2.8,6,6,6s6-2.8,6-6v-46.4C176,158.6,173.2,155.8,170,155.8z"/>
<path d="M334,310.2c-7.6,0-14-6-14-14v-92.8c0-0.8,0.4-2,0.8-2.4l20-23.6c1.2-1.2,2.8-1.6,4.4-1.2c1.6,0.4,2.8,2,2.8,3.6v116
	C348,303.8,341.6,310.2,334,310.2z M328,205v91.2c0,3.2,2.8,6,6,6s6-2.8,6-6V191L328,205z"/>
<path d="M390,310.2c-7.6,0-14-6-14-14V161.8c0-7.6,6.4-14,14-14s14,6,14,14v134.4C404,303.8,397.6,310.2,390,310.2z M390,155.8
	c-3.2,0-6,2.8-6,6v134.4c0,3.2,2.8,6,6,6s6-2.8,6-6V161.8C396,158.6,393.2,155.8,390,155.8z"/>
<path d="M446,310.2c-7.6,0-14-6-14-14V161.8c0-7.6,6.4-14,14-14s14,6,14,14v134.4C460,303.8,453.6,310.2,446,310.2z M446,155.8
	c-3.2,0-6,2.8-6,6v134.4c0,3.2,2.8,6,6,6s6-2.8,6-6V161.8C452,158.6,449.2,155.8,446,155.8z"/>
</svg>